<svg width="1440" height="1505" viewBox="0 0 1440 1505" fill="none" xmlns="http://www.w3.org/2000/svg">
<path d="M-89.9266 632.159C-81.383 630.003 -72.5375 629.301 -63.7607 630.08L39.1018 639.218C145.06 648.631 195.172 511.746 108.182 450.522C28.5897 394.505 62.639 269.624 159.649 261.758L654.154 221.663C733.929 215.195 807.192 175.118 855.666 111.431C977.708 -48.9131 1223.7 -33.1203 1324.24 141.513L1437.91 338.964C1469.18 393.287 1482.66 456.042 1476.43 518.415L1456.4 719.279C1451.22 771.195 1432.6 820.862 1402.36 863.379L1344.34 944.948C1304.95 1000.34 1247.92 1040.71 1182.59 1059.45L1033.68 1102.16C990.739 1114.48 952.069 1138.49 921.985 1171.51C895.085 1201.04 861.265 1223.42 823.57 1236.63L625.323 1306.13C576.507 1323.25 534.497 1355.62 505.513 1398.47C395.502 1561.09 147.588 1530.83 79.9243 1346.52L-144.439 735.38C-160.507 691.613 -135.133 643.566 -89.9266 632.159Z" fill="#6CBC5F"/>
</svg>
