<svg width="1440" height="1502" viewBox="0 0 1440 1502" fill="none" xmlns="http://www.w3.org/2000/svg">
<path d="M-70.8014 658.5L40.1681 661.17C166.647 664.213 223.655 504.056 123.699 426.5C49.1304 381.154 76.2181 266.872 163.206 259.819L680.831 217.849C752.367 212.049 818.271 176.766 862.763 120.449L870.166 111.079C994.854 -46.7492 1239.22 -29.8976 1341.06 143.553L1379.34 208.754L1450.64 333.958C1482.38 389.686 1495.42 454.116 1487.86 517.798L1454.84 795.755L1428.67 938.507C1422.2 973.838 1401.06 1004.77 1370.5 1023.65C1327.01 1050.52 1303.93 1101.21 1311.84 1151.72C1326.73 1246.78 1236.16 1324.98 1144.67 1295.2L971.8 1238.92C921.66 1222.6 867.545 1223.2 817.785 1240.65L638.822 1303.39C590.006 1320.5 547.997 1352.88 519.012 1395.72C409.002 1558.34 161.087 1528.08 93.4236 1343.78L-129.8 735.739C-144.331 696.159 -112.81 654.893 -70.8014 658.5Z" fill="#87E167"/>
<path d="M-70.8014 658.5L38.6424 661.171C164.889 664.252 222.601 505.024 123.699 426.5C48.0733 381.858 74.6373 266.42 162.169 259.323L675.869 217.671C746.005 211.984 810.619 177.393 854.239 122.178L863.801 110.076C988.825 -48.1778 1233.43 -32.834 1337.7 139.803L1379.34 208.754L1449.22 339.237C1477.33 391.726 1489.19 451.393 1483.28 510.641L1454.84 795.755L1352.63 944.198C1330 977.069 1315.04 1014.41 1303.56 1052.63C1259.59 1199.09 1169.41 1305.58 1018.99 1256.61L983.766 1245.15C921.221 1224.78 853.719 1225.54 791.647 1247.3L631.664 1303.39C582.848 1320.5 540.839 1352.88 511.854 1395.72C401.844 1558.34 153.929 1528.08 86.2655 1343.78L-134.5 742.436C-150.226 699.6 -116.288 654.881 -70.8014 658.5Z" fill="#87E167"/>
</svg>
