<svg width="35" height="32" viewBox="0 0 35 32" fill="none" xmlns="http://www.w3.org/2000/svg">
<path d="M3.52 31L27.92 1.2H31.8L7.4 31H3.52ZM7.88 16.32C6.44 16.32 5.13333 15.9733 3.96 15.28C2.78667 14.56 1.84 13.6133 1.12 12.44C0.426667 11.2667 0.08 9.96 0.08 8.52C0.08 7.08 0.426667 5.77333 1.12 4.6C1.84 3.4 2.78667 2.45333 3.96 1.76C5.13333 1.06667 6.44 0.719999 7.88 0.719999C9.32 0.719999 10.6267 1.06667 11.8 1.76C12.9733 2.45333 13.9067 3.4 14.6 4.6C15.2933 5.77333 15.64 7.08 15.64 8.52C15.64 9.96 15.2933 11.2667 14.6 12.44C13.9067 13.6133 12.9733 14.56 11.8 15.28C10.6267 15.9733 9.32 16.32 7.88 16.32ZM7.88 13.44C8.81333 13.44 9.62667 13.2133 10.32 12.76C11.04 12.28 11.6 11.6667 12 10.92C12.4267 10.1467 12.64 9.34667 12.64 8.52C12.64 7.66667 12.4267 6.86667 12 6.12C11.6 5.37333 11.04 4.77333 10.32 4.32C9.62667 3.84 8.81333 3.6 7.88 3.6C6.97333 3.6 6.14667 3.84 5.4 4.32C4.68 4.77333 4.10667 5.37333 3.68 6.12C3.28 6.86667 3.08 7.66667 3.08 8.52C3.08 9.34667 3.28 10.1467 3.68 10.92C4.10667 11.6667 4.68 12.28 5.4 12.76C6.14667 13.2133 6.97333 13.44 7.88 13.44ZM27.08 31.48C25.64 31.48 24.3333 31.1333 23.16 30.44C21.9867 29.72 21.04 28.7733 20.32 27.6C19.6267 26.4267 19.28 25.12 19.28 23.68C19.28 22.24 19.6267 20.9333 20.32 19.76C21.04 18.56 21.9867 17.6133 23.16 16.92C24.3333 16.2267 25.64 15.88 27.08 15.88C28.52 15.88 29.8267 16.2267 31 16.92C32.1733 17.6133 33.1067 18.56 33.8 19.76C34.4933 20.9333 34.84 22.24 34.84 23.68C34.84 25.12 34.4933 26.4267 33.8 27.6C33.1067 28.7733 32.1733 29.72 31 30.44C29.8267 31.1333 28.52 31.48 27.08 31.48ZM27.08 28.6C28.0133 28.6 28.8267 28.3733 29.52 27.92C30.24 27.44 30.8 26.8267 31.2 26.08C31.6267 25.3067 31.84 24.5067 31.84 23.68C31.84 22.8267 31.6267 22.0267 31.2 21.28C30.8 20.5333 30.24 19.9333 29.52 19.48C28.8267 19 28.0133 18.76 27.08 18.76C26.1733 18.76 25.3467 19 24.6 19.48C23.88 19.9333 23.3067 20.5333 22.88 21.28C22.48 22.0267 22.28 22.8267 22.28 23.68C22.28 24.5067 22.48 25.3067 22.88 26.08C23.3067 26.8267 23.88 27.44 24.6 27.92C25.3467 28.3733 26.1733 28.6 27.08 28.6Z" fill="#F1C52B"/>
</svg>
