<svg width="24" height="22" viewBox="0 0 24 22" fill="none" xmlns="http://www.w3.org/2000/svg">
<path d="M5.42106 4.01222C5.28528 4.44389 5.39715 4.93079 5.71516 5.28323L10.667 10.7711L0.734149 19.7338C0.232598 20.1864 0.216939 20.9875 0.699196 21.5219C1.18145 22.0564 1.97991 22.1228 2.48146 21.6703L12.4143 12.7075L17.3662 18.1954C17.6854 18.5491 18.1583 18.7102 18.6004 18.6181C19.0449 18.5285 19.3882 18.1977 19.4991 17.758L23.2878 2.62666C23.3912 2.2102 23.2727 1.75737 22.9722 1.4243C22.6716 1.09123 22.2333 0.926992 21.8085 0.987147L6.36867 3.20634C6.13234 3.24159 5.91851 3.3432 5.75012 3.49514C5.59989 3.63069 5.48573 3.80865 5.42106 4.01222Z" fill="#00AB55"/>
</svg>
