<svg width="39" height="39" viewBox="0 0 39 39" fill="none" xmlns="http://www.w3.org/2000/svg">
<path d="M31 20.8V26.8C31 34.8 27.8 38 19.8 38H12.2C4.2 38 1 34.8 1 26.8V19.2C1 11.2 4.2 8 12.2 8H18.2" stroke="black" stroke-width="1.5" stroke-linecap="round" stroke-linejoin="round"/>
<path d="M17.2 1H25.2M8 7C8 3.68 10.68 1 14 1H19.24M38 13V25.38C38 28.48 35.48 31 32.38 31M38 13H32C27.5 13 26 11.5 26 7V1L38 13ZM28 23.8H21.6C16.8 23.8 15.2 22.2 15.2 17.4V11L28 23.8Z" stroke="black" stroke-width="1.5" stroke-linecap="round" stroke-linejoin="round"/>
</svg>
