<svg width="30" height="30" viewBox="0 0 30 30" fill="none" xmlns="http://www.w3.org/2000/svg">
<path d="M16.3953 18.8372H1.04651C0.474419 18.8372 0 18.3628 0 17.7907V6.62791C0 2.97209 2.97209 0 6.62791 0H19.186C19.7581 0 20.2326 0.474419 20.2326 1.04651V15C20.2326 17.1209 18.5163 18.8372 16.3953 18.8372ZM2.09302 16.7442H16.3953C17.3581 16.7442 18.1395 15.9628 18.1395 15V2.09302H6.62791C4.13023 2.09302 2.09302 4.13023 2.09302 6.62791V16.7442Z" fill="#292D32"/>
<path d="M24.7674 27.2093H23.3721C22.8 27.2093 22.3256 26.7349 22.3256 26.1628C22.3256 25.2 21.5442 24.4186 20.5814 24.4186C19.6186 24.4186 18.8372 25.2 18.8372 26.1628C18.8372 26.7349 18.3628 27.2093 17.7907 27.2093H12.2093C11.6372 27.2093 11.1628 26.7349 11.1628 26.1628C11.1628 25.2 10.3814 24.4186 9.4186 24.4186C8.45581 24.4186 7.67442 25.2 7.67442 26.1628C7.67442 26.7349 7.2 27.2093 6.62791 27.2093H5.23256C2.34419 27.2093 0 24.8651 0 21.9767V17.7907C0 17.2186 0.474419 16.7442 1.04651 16.7442H16.3953C17.3581 16.7442 18.1395 15.9628 18.1395 15V5.23255C18.1395 4.66045 18.614 4.18604 19.186 4.18604H21.7535C23.1349 4.18604 24.4046 4.92558 25.0884 6.12558L27.4744 10.2977C27.6558 10.6186 27.6558 11.0232 27.4744 11.3442C27.293 11.6651 26.9442 11.8605 26.5674 11.8605H24.7674C24.5721 11.8605 24.4186 12.0139 24.4186 12.2093V16.3953C24.4186 16.5907 24.5721 16.7442 24.7674 16.7442H28.9535C29.5256 16.7442 30 17.2186 30 17.7907V21.9767C30 24.8651 27.6558 27.2093 24.7674 27.2093ZM24.2791 25.1163H24.7674C26.4977 25.1163 27.907 23.707 27.907 21.9767V18.8372H24.7674C23.4279 18.8372 22.3256 17.7349 22.3256 16.3953V12.2093C22.3256 10.8698 23.414 9.76743 24.7674 9.76743L23.2744 7.15813C22.9674 6.61394 22.3814 6.27906 21.7535 6.27906H20.2326V15C20.2326 17.1209 18.5163 18.8372 16.3953 18.8372H2.09302V21.9767C2.09302 23.707 3.50233 25.1163 5.23256 25.1163H5.72094C6.18141 23.5116 7.66046 22.3256 9.4186 22.3256C11.1767 22.3256 12.6558 23.5116 13.1163 25.1163H16.8977C17.3581 23.5116 18.8372 22.3256 20.5953 22.3256C22.3535 22.3256 23.8186 23.5116 24.2791 25.1163Z" fill="#292D32"/>
<path d="M9.41863 30.0001C7.2977 30.0001 5.58142 28.2838 5.58142 26.1629C5.58142 24.042 7.2977 22.3257 9.41863 22.3257C11.5396 22.3257 13.2558 24.042 13.2558 26.1629C13.2558 28.2838 11.5396 30.0001 9.41863 30.0001ZM9.41863 24.4187C8.45584 24.4187 7.67444 25.2001 7.67444 26.1629C7.67444 27.1257 8.45584 27.9071 9.41863 27.9071C10.3814 27.9071 11.1628 27.1257 11.1628 26.1629C11.1628 25.2001 10.3814 24.4187 9.41863 24.4187Z" fill="#292D32"/>
<path d="M20.5813 30.0001C18.4604 30.0001 16.7441 28.2838 16.7441 26.1629C16.7441 24.042 18.4604 22.3257 20.5813 22.3257C22.7023 22.3257 24.4186 24.042 24.4186 26.1629C24.4186 28.2838 22.7023 30.0001 20.5813 30.0001ZM20.5813 24.4187C19.6186 24.4187 18.8372 25.2001 18.8372 26.1629C18.8372 27.1257 19.6186 27.9071 20.5813 27.9071C21.5441 27.9071 22.3255 27.1257 22.3255 26.1629C22.3255 25.2001 21.5441 24.4187 20.5813 24.4187Z" fill="#292D32"/>
<path d="M28.9535 18.8373H24.7674C23.4279 18.8373 22.3256 17.735 22.3256 16.3955V12.2094C22.3256 10.8699 23.4279 9.76758 24.7674 9.76758H26.5674C26.9442 9.76758 27.293 9.96293 27.4744 10.2978L29.8604 14.4839C29.9442 14.6373 30 14.8187 30 15.0001V17.7908C30 18.3629 29.5256 18.8373 28.9535 18.8373ZM24.7674 11.8606C24.5721 11.8606 24.4186 12.0141 24.4186 12.2094V16.3955C24.4186 16.5908 24.5721 16.7443 24.7674 16.7443H27.907V15.2792L25.9535 11.8606H24.7674Z" fill="#292D32"/>
</svg>
