<?xml version="1.0" encoding="UTF-8"?><svg id="a" xmlns="http://www.w3.org/2000/svg" viewBox="0 0 206.97 172.88"><defs><style>.b{fill:#fff;}.b,.c{stroke:#b7b7b7;stroke-linecap:round;stroke-linejoin:round;stroke-width:8px;}.c{fill:none;}</style></defs><path class="c" d="M130.72,126.55L166.83,20.13c1.61-4.76,6.08-7.96,11.1-7.96h8.7"/><circle class="c" cx="194.8" cy="12.17" r="8.17"/><path class="c" d="M130.72,126.55h-63.35c-19.25,0-32.32-5.75-34.98-14.27-1.96-6.28-3.85-12.59-5.99-18.82L12.03,51.57l144.17-.13-25.49,75.11Z"/><polygon class="c" points="139.85 97.65 27.84 97.65 19.68 73.81 147.94 73.81 139.85 97.65"/><line class="c" x1="118.03" y1="51.44" x2="92.54" y2="126.55"/><line class="c" x1="75.08" y1="126.55" x2="49.59" y2="51.44"/><path class="c" d="M49.59,154.86h93.94c7.82,0,14.16-6.34,14.16-14.16h0c0-7.82-6.34-14.16-14.16-14.16h-12.81"/><circle class="b" cx="36.71" cy="154.86" r="12.88"/><circle class="b" cx="136.14" cy="156" r="12.88"/></svg>