<?xml version="1.0" encoding="UTF-8"?><svg id="a" xmlns="http://www.w3.org/2000/svg" viewBox="0 0 208.43 249.44"><defs><style>.b{fill:#ff981d;stroke:#000;stroke-linecap:round;stroke-linejoin:round;stroke-width:12.68px;}</style></defs><rect class="b" x="6.34" y="6.34" width="195.74" height="236.75" rx="23.76" ry="23.76"/><path d="M173.02,122.87c-.85,.05-1.71-.05-2.56,.02-.94,.09-1.16-.29-1.22-1.18-.39-5.58-1.59-11-3.39-16.28-.66-1.94-1.49-3.82-2.32-5.7-.58-1.31-1.78-1.78-2.96-1.31-1.09,.44-1.58,1.57-1.22,2.88,.09,.34,.22,.66,.37,.98,2.66,5.95,4.28,12.17,4.96,18.64,.2,1.95,.25,1.94-1.7,1.94-33.33,0-66.66,0-99.99,0-.7,0-1.4-.05-2.09,.18-1.1,.37-1.64,1.14-1.55,2.28,.09,1.14,.75,1.84,1.89,1.99,.59,.08,1.2,.06,1.8,.06,36.74,0,73.49,0,110.23,0,.55,0,1.11-.02,1.65,.06,.66,.1,1.33,.36,1.56,1.03,.53,1.55,.6,3.18,0,4.69-.56,1.41-1.98,1.1-3.16,1.1-46.08,0-92.16,0-138.24,0-.45,0-.9,.02-1.35-.01-1.32-.08-1.99-.83-2.09-2.11-.04-.55-.01-1.1,0-1.66,0-2.49,.62-3.12,3.1-3.12,5.22,0,10.44,0,15.66,0,1.81,0,2.83-.79,2.87-2.17,.04-1.4-1.06-2.3-2.9-2.33-1.15-.02-2.31,0-3.46,0-1.04-.02-2.43,.32-3.04-.21-.68-.59-.02-1.96,.1-2.98,1.39-12.21,6.15-23,14.16-32.23,10.3-11.87,23.31-18.84,38.99-20.76,11.08-1.36,21.68,.32,31.85,4.82,10.23,4.53,18.54,11.44,25.01,20.57,1.12,1.58,2.37,1.93,3.54,1.1,1.18-.83,1.25-2.15,.14-3.7-10.61-14.74-24.87-23.69-42.75-26.87-1.14-.2-1.39-.31-.8-1.49,2.59-5.22,.85-8.77-4.83-10.03-3.22-.72-6.48-.76-9.71-.08-6.19,1.3-7.84,4.71-5.06,10.42,.51,1.05-.02,1.03-.72,1.13-7.95,1.25-15.43,3.88-22.35,7.96-10.47,6.17-18.67,14.58-24.53,25.25-4.45,8.11-6.97,16.8-7.71,26-.08,.99-.46,1.14-1.3,1.1-1.3-.05-2.61-.05-3.91,0-3.55,.12-6.2,2.24-6.75,5.49-.17,.98-.11,2-.11,3,0,4.8,2.62,7.42,7.44,7.42,7.28,0,14.56,0,21.84,.02,.39,0,.87-.24,1.29,.3-2.6,1.53-4.33,3.88-6.18,6.13-2.39,2.91-4.8,5.8-7.16,8.72-.51,.63-.88,.83-1.72,.47-2.74-1.18-5.56-.41-7.36,2.02-1.55,2.09-3.03,4.25-4.4,6.46-1.89,3.02-1.29,6.48,1.64,8.51,9.53,6.57,19.11,13.08,28.72,19.53,2.96,1.99,6.35,1.53,8.36-1.09,1.77-2.3,3.39-4.73,4.89-7.21,1.38-2.29,.99-4.58-.49-6.78-.4-.6-1.66-.78-1.19-1.74,.33-.67,1.11-1.14,1.74-1.63,.63-.48,1.31-.93,2.02-1.29,4.72-2.45,9.8-2.17,14.86-1.87,4.11,.24,8.14,1.15,12.26,1.34,6.99,.32,13.57-1.67,20.19-3.51,5.71-1.59,11.11-3.85,15.68-7.64,5.33-4.42,10.45-9.09,15.58-13.73,1.63-1.48,2.03-3.56,1.61-5.69-.22-1.12,.03-1.34,1.12-1.33,5.37,.05,10.74,.03,16.11,.02,.8,0,1.59,0,2.39-.21,2.66-.66,4-2.6,4.97-4.94v-5.42c-1.31-4.03-4.2-5.62-8.3-5.36ZM98.6,55.98c3.72-1.27,7.44-1.27,11.17-.03,.65,.22,.9,.59,.83,1.34-.25,2.76-2.01,4.45-4.7,4.41-.6,0-1.2,0-1.8,0-.6,0-1.2-.01-1.8,0-2.44,.05-4.69-2.37-4.51-4.8,.04-.58,.4-.79,.81-.93Zm21.37,82.85h20.92c-6.18,5.93-14.1,8.02-22.13,9.88,2.76-4.82,2.86-5.62,1.21-9.88Zm-24.56-.02c-1.71,.59-3.09,.99-4.64,0h4.64Zm-25.19,42.23c-1.21,1.84-2.46,3.65-3.7,5.47-.4,.59-.87,1.12-1.64,1.05-.65,.04-1.09-.32-1.54-.62-9.23-6.27-18.47-12.54-27.7-18.81-1.56-1.06-1.68-1.77-.63-3.36,1.17-1.75,2.34-3.49,3.54-5.22,.96-1.37,1.65-1.53,3.02-.61,9.37,6.34,18.73,12.7,28.08,19.06,1.33,.9,1.46,1.69,.58,3.03Zm81.7-38.47c-.23,.32-.54,.59-.84,.86-3.68,3.26-7.43,6.44-11.03,9.79-5.17,4.83-11.2,7.96-18.01,9.77-5.95,1.58-11.84,3.46-18.11,3.17-3.01-.14-5.97-.7-8.96-1.02-6.05-.66-12.1-1.07-18.01,.98-2.85,.98-5.33,2.56-7.33,4.8-.77,.86-1.28,.8-2.18,.18-6.31-4.35-12.65-8.66-19.02-12.91-.99-.66-.98-1.01-.25-1.87,2.92-3.44,5.71-6.99,8.65-10.42,3.7-4.31,8.49-6.61,14.12-7.06,1.86-.15,3.67,.43,5.46,.91,4.83,1.3,9.66,2.59,14.48,3.93,1.16,.32,2.26,.33,3.41,.08,5.88-1.24,11.75-2.48,17.63-3.71,.74-.16,1.51-.23,2.24-.04,1.27,.34,2.08,1.18,2.27,2.51,.21,1.47-.46,2.55-1.68,3.25-1.96,1.11-3.95,2.15-5.95,3.18-1.21,.62-2.17,1.41-1.78,2.91,.39,1.49,1.6,1.74,2.97,1.68,1.35-.05,2.71-.01,4.06-.01,5.91,.55,11.15-2.15,16.67-3.44,2.28-.53,4.28-1.56,6.21-2.88,3.5-2.42,7.08-4.72,10.64-7.06,.54-.36,1.09-.73,1.68-.98,.9-.38,1.89-.65,2.59,.32,.7,.97,.8,2.05,.07,3.08Z"/></svg>