<?xml version="1.0" encoding="UTF-8"?><svg id="a" xmlns="http://www.w3.org/2000/svg" viewBox="0 0 49.3 59"><defs><style>.b,.c,.d,.e{stroke-linecap:round;stroke-linejoin:round;}.b,.c,.e{stroke:#000;}.b,.e{fill:#00f9ef;}.c{fill:none;}.d{fill:#009de4;stroke:#00f9ef;}.d,.e{stroke-width:3px;}</style></defs><rect class="e" x="1.5" y="1.5" width="46.3" height="56" rx="5.62" ry="5.62"/><path class="c" d="M33.32,24.36s6.7-4.28,9.64,0c2.52,3.66,1.61,8.11-1.91,12.96-1.74,2.39-4.9,3.37-7.62,2.22-.03,0-.07-.03-.1-.05"/><path class="c" d="M33.32,24.36s-6.7-4.28-9.64,0c-2.52,3.66-1.61,8.11,1.91,12.96,1.74,2.39,4.9,3.37,7.62,2.22,.03,0,.07-.03,.1-.05"/><path class="c" d="M33.65,24.15s1.12-6.06,6.29-6.06"/><path class="c" d="M32.96,24.15s-1.38-7.87-7.35-7.87c0,0-.48,4.15,2.68,6.1"/><path class="c" d="M40.61,24.62c2.89,3.8,1.64,7.78-2.21,12.5"/><path class="c" d="M33.32,24.36s6.7-4.28,9.64,0c2.52,3.66,1.61,8.11-1.91,12.96-1.74,2.39-4.9,3.37-7.62,2.22-.03,0-.07-.03-.1-.05"/><path class="c" d="M33.32,24.36s-6.7-4.28-9.64,0c-2.52,3.66-1.61,8.11,1.91,12.96,1.74,2.39,4.9,3.37,7.62,2.22,.03,0,.07-.03,.1-.05"/><path class="c" d="M33.65,24.15s1.12-6.06,6.29-6.06"/><path class="c" d="M32.96,24.15s-1.38-7.87-7.35-7.87c0,0-.48,4.15,2.68,6.1"/><path class="c" d="M40.61,24.62c2.89,3.8,1.64,7.78-2.21,12.5"/><path class="d" d="M39.85,42.71H18.59s-4.12,.32-4.12-6.51c0-.24,0-.48,.03-.71,.41-5.09,6.53-7.51,10.55-4.37l14.8,11.58h0Z"/><path class="b" d="M38.42,42.25H18.68s-3.83,.3-3.83-6.04c0-.23,0-.45,.03-.66,.38-4.72,6.07-6.98,9.8-4.06l13.75,10.76h-.01Z"/><line class="c" x1="19.28" y1="34.92" x2="18.26" y2="39.39"/><line class="c" x1="23.56" y1="36.25" x2="22.71" y2="39.96"/><line class="c" x1="27.92" y1="38.31" x2="27.52" y2="40.02"/><line class="c" x1="32.18" y1="39.39" x2="32.02" y2="40.11"/><path class="c" d="M14.85,30.19s-.22-4.03-3.2-4.99c-.68-.22-1.37,.33-1.37,1.04v3.38"/><path class="c" d="M13.35,32.59s.03-2.55-3.83-2.55h-3.54c-.72,0-1.25,.7-1.01,1.38,.4,1.17,1.4,2.67,3.88,2.67h3.72"/><path class="c" d="M12.52,36.29s.81,1.84-1.45,2.39l-3.95,.97c-.91,.22-1.78-.49-1.74-1.43,.05-1.41,.69-3.24,3.5-3.93"/></svg>