<?xml version="1.0" encoding="UTF-8"?><svg id="a" xmlns="http://www.w3.org/2000/svg" viewBox="0 0 49.3 59"><defs><style>.b,.c,.d,.e,.f{stroke-linecap:round;stroke-linejoin:round;}.b,.c,.e,.f{stroke:#000;}.b,.g,.e{fill:#feb510;}.b,.f{stroke-width:1.08px;}.c{stroke-width:.68px;}.c,.d,.f{fill:none;}.d{stroke:#feb510;}.d,.e{stroke-width:3px;}</style></defs><rect class="e" x="1.5" y="1.5" width="46.3" height="56" rx="5.62" ry="5.62"/><g><path d="M34.3,28.14c.42,.46,.93,.58,1.51,.57,.66-.01,1.31-.01,1.97,0,.58,.01,1.09-.14,1.51-.62,.07,.33,.13,.63,.18,.93l1.38,7.08c.2,1,.39,2.01,.59,3.01,.11,.59-.29,1.1-.89,1.1h-7.49c-.61,0-1.01-.5-.9-1.11,.48-2.5,.97-5,1.46-7.5,.22-1.13,.44-2.27,.66-3.4,0-.02,0-.03,.02-.07h0Zm5.2,10.69c.24,0,.41-.19,.38-.44-.09-.68-.19-1.36-.28-2.03-.19-1.36-.37-2.71-.56-4.07-.06-.44-.12-.87-.18-1.31-.04-.25-.22-.39-.45-.35-.21,.03-.34,.23-.3,.47,.06,.41,.11,.82,.17,1.23l.63,4.59c.07,.52,.14,1.03,.21,1.55,.03,.24,.18,.37,.39,.37h0Zm-4-7.8c0-.23-.13-.4-.33-.42-.22-.02-.39,.1-.42,.32-.05,.33-.09,.66-.14,.99-.3,2.14-.59,4.28-.89,6.42-.03,.25,.09,.43,.3,.47,.23,.04,.41-.11,.45-.35,.09-.66,.18-1.31,.27-1.97,.18-1.29,.36-2.58,.53-3.87,.07-.54,.15-1.08,.22-1.6h0Zm1.68,3.71v-3.84c-.03-.16-.12-.27-.28-.31-.16-.04-.3,.01-.4,.15-.07,.09-.07,.2-.07,.31v7.44c0,.18,.13,.33,.3,.36,.18,.03,.34-.05,.42-.21,.04-.09,.03-.18,.03-.27v-3.64h0Z"/><path d="M36.77,27.94h-1.19c-.45,0-.76-.23-.9-.66-.24-.75-.49-1.49-.73-2.24-.14-.45-.03-.81,.35-1.09,.64-.46,1.27-.93,1.91-1.39,.37-.27,.76-.26,1.13,0,.63,.46,1.25,.91,1.88,1.37,.41,.3,.52,.65,.36,1.13-.24,.74-.48,1.47-.72,2.21-.14,.44-.45,.66-.91,.66h-1.18Zm-1.21-4.06c-.2,0-.37,.18-.36,.38,0,.2,.18,.36,.38,.36s.35-.17,.35-.36c0-.2-.17-.37-.37-.37h0Zm1.25-.74c-.2,0-.38,.16-.38,.36s.16,.36,.35,.37c.2,0,.38-.15,.38-.35s-.16-.37-.36-.38h.01Zm1.59,1.1c0-.2-.15-.36-.34-.37-.2,0-.37,.15-.38,.35,0,.21,.15,.37,.35,.38,.2,0,.37-.16,.37-.36Z"/></g><line class="d" x1="34.98" y1="22.16" x2="34.98" y2="41.02"/><g><polygon class="b" points="31.35 16.28 16.34 16.28 12.37 21.64 28.02 21.64 31.35 16.28"/><rect class="b" x="12.37" y="21.64" width="15.65" height="19.78"/><polygon class="b" points="28.02 21.64 31.36 16.28 31.35 16.28 34.69 21.64 34.69 41.42 28.02 41.42 28.02 21.64"/><line class="f" x1="28.02" y1="21.64" x2="34.69" y2="21.64"/></g><path class="g" d="M10.26,29.29l-2.45,12.07,.35,1.08h3.79s3.23,.23,3.37,.23,1.83-.52,1.83-.52l.12-.9-2.49-11.83,.7-3.17-2.9-2.06s-3,1.86-3,1.9,.68,3.22,.68,3.22v-.02Z"/><path d="M12.2,36.9v-3.81c0-.11,0-.21,.09-.3,.18-.17,.47-.1,.52,.15,.02,.08,.02,.18,.02,.26v7.45c0,.07,0,.14-.02,.21-.04,.16-.18,.26-.33,.25-.16,0-.27-.14-.29-.3v-3.9h.01Z"/><path d="M15.63,40.68c0,.18-.12,.32-.29,.33-.18,.02-.32-.09-.35-.29-.07-.45-.13-.9-.19-1.36-.22-1.61-.44-3.23-.67-4.84-.07-.48-.13-.95-.2-1.43-.03-.21,.07-.37,.26-.4,.2-.03,.34,.09,.38,.31,.16,1.18,.33,2.36,.49,3.54,.19,1.35,.37,2.7,.55,4.05,0,.03,.01,.06,.01,.09h0Z"/><path d="M11.1,33.04l-.24,1.8c-.2,1.43-.4,2.86-.59,4.29-.07,.53-.15,1.05-.22,1.58-.03,.21-.18,.32-.37,.29-.18-.03-.28-.17-.26-.38,.13-.99,.27-1.98,.41-2.98l.63-4.56s.01-.1,.03-.15c.05-.19,.18-.28,.36-.25,.17,.03,.27,.16,.26,.35h0Z"/><path d="M17.61,41.34c-.83-4.09-1.66-8.19-2.5-12.28-.02-.09-.01-.17,.02-.26,.2-.6,.4-1.2,.59-1.81,.18-.58,0-1.09-.48-1.44-.66-.48-1.32-.96-1.99-1.44-.47-.34-1.04-.35-1.51,0-.66,.48-1.33,.96-1.99,1.44-.52,.38-.68,.89-.47,1.51,.17,.53,.35,1.06,.52,1.59,.02,.06,.04,.13,.03,.2-.23,1.14-.45,2.29-.67,3.44l-1.74,9.06c-.17,.88,.39,1.57,1.29,1.57h4.17c.24,0,.38-.19,.32-.41-.05-.18-.2-.23-.37-.23h-4.15c-.43,0-.71-.33-.63-.75,.29-1.51,.58-3.03,.87-4.54,.37-1.95,.75-3.9,1.12-5.85,.08-.43,.17-.85,.25-1.32,.35,.38,.77,.43,1.22,.42,.65-.01,1.3-.01,1.94,0,.43,0,.84-.02,1.18-.36,.13,.63,.24,1.22,.36,1.82,.66,3.26,1.33,6.52,1.99,9.79,.09,.46-.18,.79-.64,.79h-1.26c-.24,0-.39,.12-.39,.32s.15,.32,.39,.32h1.24c.89,0,1.47-.7,1.29-1.57h0Zm-3.28-12.18c-.09,.26-.29,.41-.57,.42h-2.52c-.3,0-.51-.14-.6-.43-.26-.79-.52-1.59-.77-2.38-.09-.27-.01-.51,.21-.68,.68-.5,1.37-1,2.06-1.5,.22-.16,.47-.16,.69,0,.69,.49,1.38,.99,2.06,1.5,.22,.16,.3,.41,.21,.68l-.78,2.4h0Z"/><path d="M13.41,26.23c0-.21,.18-.37,.38-.37,.21,0,.39,.19,.38,.4,0,.21-.19,.38-.41,.36-.21-.01-.36-.18-.35-.39Z"/><path d="M11.23,26.62c-.21,0-.37-.16-.37-.38s.18-.39,.39-.38c.2,0,.38,.18,.38,.38,0,.21-.18,.38-.39,.38h-.01Z"/><path d="M12.51,25.86c-.21,0-.37-.17-.37-.38s.18-.39,.39-.38c.21,0,.38,.18,.37,.4,0,.21-.18,.37-.39,.36Z"/><polygon class="c" points="21 16.28 19.59 19.41 21.23 18.48 22.12 19.7 23.61 16.31 21 16.28"/></svg>