<?xml version="1.0" encoding="UTF-8"?><svg id="a" xmlns="http://www.w3.org/2000/svg" viewBox="0 0 49.3 59"><defs><style>.b{fill:#fff;}.b,.c,.d,.e{stroke:#000;}.b,.c,.d,.e,.f{stroke-linecap:round;stroke-linejoin:round;}.c{stroke-width:3px;}.c,.e{fill:#009de4;}.d{fill:none;}.f{fill:#ff750c;stroke:#009de4;}</style></defs><rect class="c" x="1.5" y="1.5" width="46.3" height="56" rx="5.62" ry="5.62"/><g><ellipse class="d" cx="13.73" cy="19.81" rx="6.16" ry="8.97"/><path class="d" d="M17.76,10.84h12.61c4.95,0,8.97,4.02,8.97,8.97h0c0,4.95-4.02,8.97-8.97,8.97h-12.61"/><polyline class="d" points="39.25 18.59 41.72 17 41.72 22.62 39.25 21.02"/><path class="d" d="M36.4,19.81c0,3.61-2.92,6.53-6.53,6.53h-9.18"/><circle class="d" cx="13.65" cy="19.58" r=".07"/><circle class="d" cx="13.5" cy="13.15" r=".07"/><circle class="d" cx="10.4" cy="17.03" r=".07"/><circle class="d" cx="16.96" cy="16.88" r=".07"/><circle class="d" cx="13.83" cy="26.75" r=".07"/><circle class="d" cx="16.96" cy="22.79" r=".07"/><circle class="d" cx="10.33" cy="22.79" r=".07"/><ellipse class="d" cx="18.9" cy="37.38" rx="8.97" ry="6.16"/><circle class="d" cx="18.67" cy="37.47" r=".07"/><circle class="d" cx="12.24" cy="37.62" r=".07"/><circle class="d" cx="16.12" cy="40.72" r=".07"/><circle class="d" cx="15.97" cy="34.16" r=".07"/><circle class="d" cx="25.84" cy="37.28" r=".07"/><circle class="d" cx="21.88" cy="34.16" r=".07"/><circle class="d" cx="21.88" cy="40.79" r=".07"/><ellipse class="f" cx="31.24" cy="41.2" rx="9.73" ry="6.97"/><ellipse class="e" cx="31.24" cy="41.2" rx="8.97" ry="6.16"/><circle class="b" cx="31.31" cy="41.28" r=".07"/><circle class="b" cx="24.88" cy="41.43" r=".07"/><circle class="b" cx="28.76" cy="44.53" r=".07"/><circle class="b" cx="28.61" cy="37.97" r=".07"/><circle class="b" cx="38.47" cy="41.1" r=".07"/><circle class="b" cx="34.52" cy="37.97" r=".07"/><circle class="b" cx="34.52" cy="44.6" r=".07"/></g></svg>