<?xml version="1.0" encoding="UTF-8"?><svg id="a" xmlns="http://www.w3.org/2000/svg" viewBox="0 0 49.3 59"><defs><style>.b{stroke-width:.78px;}.b,.c,.d,.e,.f,.g,.h,.i,.j{stroke-linecap:round;stroke-linejoin:round;}.b,.e{fill:#ff750c;}.b,.e,.g{stroke:#989eff;}.c{fill:#fff;}.c,.d,.f,.h,.i,.j{stroke:#000;}.c,.g{stroke-width:.91px;}.d{stroke-width:.51px;}.d,.g,.i{fill:none;}.f{stroke-width:3px;}.f,.h,.j{fill:#989eff;}.h{stroke-width:.68px;}.i,.j{stroke-width:.79px;}</style></defs><rect class="f" x="1.5" y="1.5" width="46.3" height="56" rx="5.62" ry="5.62"/><g><polygon class="j" points="38.93 19.53 27.94 19.53 25.04 23.45 36.49 23.45 38.93 19.53"/><rect class="j" x="25.04" y="23.45" width="11.45" height="14.48"/><rect class="j" x="36.49" y="23.45" width="5.51" height="14.48"/><rect class="j" x="27.94" y="16.5" width="10.98" height="3.03"/><ellipse class="b" cx="32.51" cy="20.73" rx="1.78" ry="1.23"/><ellipse class="h" cx="32.51" cy="20.73" rx="1.55" ry="1.05"/><line class="i" x1="28.05" y1="29.45" x2="33.56" y2="29.45"/><line class="i" x1="28.05" y1="31.81" x2="33.56" y2="31.81"/><polygon class="j" points="42 23.45 38.93 19.53 36.49 23.45 42 23.45"/><path class="d" d="M34.54,21.6c0,.58-.91,1.05-2.03,1.05s-2.03-.47-2.03-1.05"/><path class="e" d="M7.3,42.5H30.42v-11.57H7.3v5.62h0c1.3,.54,1.36,2.41,.11,3.05l-.11,.05v2.85Z"/><path class="e" d="M7.3,30.93l15.65-5.7s6.06,2.1,7.47,5.7H7.3Z"/><path class="j" d="M8,41.75H29.73v-10.56H8v5.12h0c1.22,.5,1.28,2.2,.1,2.78l-.1,.05v2.6h0Z"/><circle class="i" cx="18.17" cy="32.11" r="1.82"/><circle class="i" cx="12.19" cy="34.62" r="1.22"/><circle class="c" cx="27.13" cy="34.28" r=".07"/><circle class="c" cx="15.93" cy="36.32" r=".07"/><circle class="i" cx="22.98" cy="34.43" r="1.49"/><circle class="i" cx="19.99" cy="38.23" r="1.12"/><circle class="i" cx="25.96" cy="38.61" r="1.24"/><circle class="i" cx="14.28" cy="40.41" r="1.34"/><line class="g" x1="15.59" y1="31.51" x2="20.72" y2="31.51"/><path class="j" d="M8,31.19l14.71-5.2s5.69,1.91,7.02,5.2H8Z"/><line class="g" x1="11.89" y1="41.45" x2="17.03" y2="41.45"/><path class="i" d="M8,41.75H29.73v-10.56H8v5.12h0c1.22,.5,1.28,2.2,.1,2.78l-.1,.05v2.6h0Z"/></g></svg>