<?xml version="1.0" encoding="UTF-8"?><svg id="a" xmlns="http://www.w3.org/2000/svg" viewBox="0 0 49.3 59"><defs><style>.b{fill:#00c1fc;stroke-width:3px;}.b,.c{stroke:#000;stroke-linecap:round;stroke-linejoin:round;}.c{fill:none;}</style></defs><rect class="b" x="1.5" y="1.5" width="46.3" height="56" rx="5.62" ry="5.62"/><g><path class="c" d="M19.46,9.93c.09,.21,3.91,2.77,3.91,9.91,0,0-3.91,.51-3.91,7.53v5.06c0,1.67,.2,3.34,.69,4.94,.45,1.49,1.18,3.08,2.34,3.97,.55,.41,.56,1.23-.03,1.58-1.28,.76-2.7,2.02-2.7,3.91,0,0-.09,2.26,4.3,2.26h1.28c4.38,0,4.3-2.26,4.3-2.26,0-1.89-1.42-3.15-2.7-3.91-.59-.35-.58-1.17-.03-1.58,1.16-.88,1.89-2.48,2.34-3.97,.49-1.6,.69-3.27,.69-4.94v-5.06c0-7.02-3.91-7.53-3.91-7.53,0-7.15,3.83-9.7,3.91-9.91"/><path class="c" d="M13.9,33.78s.64,1.76,4.21,1.76"/><path class="c" d="M35.61,33.78s-.64,1.76-4.21,1.76"/><path class="c" d="M13.9,29.32s.64,1.76,4.21,1.76"/><path class="c" d="M35.61,29.32s-.64,1.76-4.21,1.76"/><path class="c" d="M13.9,24.65s.64,1.76,4.21,1.76"/><path class="c" d="M35.61,24.65s-.64,1.76-4.21,1.76"/><path class="c" d="M9.3,11.6c-.22-.39-.77-.44-1.02-.07-.41,.6-.83,2.03-.83,5.4,0,6.57,6.8,7.72,6.8,7.72,0,0,1.76,.42,1.76-4.27,0-3.08-.82-6.09-1.37-7.32-.15-.34-.66-.29-.74,.08l-.92,3.54c-.13,.61-.94,.73-1.25,.18l-2.43-5.25h0Z"/><path class="c" d="M39.99,11.6c.22-.39,.77-.44,1.02-.07,.41,.6,.83,2.03,.83,5.4,0,6.57-6.8,7.72-6.8,7.72,0,0-1.76,.42-1.76-4.27,0-3.08,.82-6.09,1.37-7.32,.15-.34,.66-.29,.74,.08l.92,3.54c.13,.61,.94,.73,1.25,.18l2.43-5.25h0Z"/><line class="c" x1="19.77" y1="35.86" x2="29.61" y2="35.86"/><line class="c" x1="20.74" y1="38.96" x2="28.64" y2="38.96"/><line class="c" x1="22.88" y1="42.01" x2="26.5" y2="42.01"/><circle class="c" cx="21.21" cy="17.97" r=".49"/><circle class="c" cx="28.19" cy="17.97" r=".49"/></g></svg>