<?xml version="1.0" encoding="UTF-8"?><svg id="a" xmlns="http://www.w3.org/2000/svg" viewBox="0 0 49.3 59"><defs><style>.b{fill:#009ee7;stroke:#000;stroke-linecap:round;stroke-linejoin:round;stroke-width:3px;}.c{fill:#040404;}.d{fill:#2b2b2b;}.e{fill:#0e0e0e;}.f{fill:#010101;}</style></defs><rect class="b" x="1.5" y="1.5" width="46.3" height="56" rx="5.62" ry="5.62"/><path class="d" d="M24.3,18.54c.08,.25,.09,.5,0,.75v-.75Z"/><path class="d" d="M24.29,17.58c.09,.23,.09,.45,0,.68v-.68Z"/><path class="f" d="M23.46,39.04l-.07,.07c-.26,.21-.46,.49-.76,.67-.08,.05-.14,.19-.25,.08-.1-.09,0-.19,.04-.28,.19-.37,.42-.72,.68-1.05,.53-.7,1.03-1.42,1.59-2.1,.92-1.22,1.86-2.43,2.72-3.69,.85-1.25,1.6-2.57,2.29-3.93,.68-1.32,1.25-2.69,1.9-4.03,.23-.46,.51-.88,.8-1.3,.08-.12,.17-.22,.33-.17,.15,.05,.09,.19,.1,.29,0,.28-.1,.53-.18,.79-.22,.73-.56,1.41-.86,2.11-.32,.75-.64,1.5-.99,2.23-.76,1.56-1.6,3.07-2.59,4.5-.19,.27-.37,.54-.56,.81-.54,.74-1.11,1.46-1.67,2.18h0c-.37,.43-.71,.88-1.09,1.29h0c-.44,.53-.98,.98-1.44,1.49v.04Z"/><path class="c" d="M22.9,44.37c-1.08,.05-1.96-.18-2.81-.54-.58-.25-.98-.68-1.32-1.19-.14-.2-.03-.32,.17-.37,.18-.05,.33,.04,.48,.14,1.14,.76,2.41,1.08,3.77,1.01,.84-.04,1.67-.2,2.51-.13,.19,.02,.34-.11,.52-.16,.09-.03,.21-.09,.27,.04,.05,.12-.04,.19-.13,.24-1.13,.56-2.24,1.17-3.44,.96h-.02Z"/><path class="e" d="M20.57,34.55c-.51,0-.9-.39-.9-.9,0-.45,.42-.84,.89-.84s.85,.39,.84,.91c0,.47-.37,.83-.84,.83h.01Z"/><path d="M37.22,24.87c-.27-2.09-1.01-4.05-1.63-6.04-.17-.54-.27-1.02-.14-1.58,.15-.63,.04-1.25-.55-1.67-.33-.23-.53-.21-.81,.08-.37,.37-.68,.79-.97,1.22-.18,.26-.37,.52-.6,.84-.03-.19-.05-.29-.07-.39-.13-.84-.25-1.68-.43-2.51-.3-1.39-.96-2.08-2.29-2.31-.57-.1-1.14-.03-1.68,.15-1.47,.48-2.57,1.44-3.52,2.63-.06,.08-.09,.22-.22,.17-.1-.03-.06-.16-.07-.24-.1-.79-.22-1.58-.48-2.33-.09-.27-.2-.53-.43-.72-.12-.1-.28-.16-.36-.05-.18,.25-.45,.24-.69,.28-1.13,.22-1.98,.92-2.8,1.67-.71,.64-1.26,1.43-1.83,2.19-.93,1.26-1.95,2.45-2.77,3.79-.78,1.19-1.29,2.51-1.72,3.86-.59,1.87-1.01,3.78-1.26,5.72-.15,1.19-.11,2.37-.08,3.56,.02,.66,.1,1.33,.19,1.99,.11,.77,.23,1.55,.43,2.3,.39,1.48,.98,2.89,1.71,4.24,.62,1.13,1.37,2.16,2.36,2.99,.37,.34,.78,.63,1.25,.81,.9,.34,1.89,.46,2.7,1.04,.02,0,.04,.02,.06,.02,.79,.21,1.6,.34,2.42,.37,1.6,.06,3.04-.5,4.39-1.27,1.71-.98,3.21-2.24,4.59-3.65,2.04-2.09,3.56-4.49,4.4-7.3,.39-1.28,.82-2.56,1.02-3.89,.29-1.99,.13-3.98-.13-5.97h.01Zm-7.48-10.55c.09-.23,.18-.25,.37-.08,.2,.19,.27,.44,.34,.69,.19,.67,.26,1.35,.37,2.03,.13,.78,.17,1.57,.42,2.33,.06,.19,.02,.34-.07,.54-.69,1.36-1.39,2.72-2.11,4.07-.18,.33-.39,.63-.58,.96-.42,.63-.76,1.31-1.15,1.96-.71,1.19-1.39,2.41-2.08,3.61-.04,.08-.08,.19-.19,.16-.12-.04-.05-.15-.03-.24,.29-1.18,.55-2.38,1.03-3.51,.14-.4,.27-.8,.35-1.22,.37-1.12,.68-2.27,1.08-3.38,.38-1.06,.67-2.16,.98-3.25,.27-.96,.46-1.94,.71-2.9,.16-.6,.32-1.2,.56-1.78h0Zm-5.74,15.61c.42-2.66,.39-5.34,.38-8.02,0-1.51,.08-3.02,0-4.53,0-.13,.03-.27,.05-.4,.94-.73,1.76-1.6,2.8-2.21,.35-.21,.71-.39,1.07-.58,.31-.05,.62-.14,.94-.14,.19,0,.25,.06,.18,.24-.39,.99-.5,2.05-.8,3.06-.27,.93-.62,1.83-.96,2.73-.58,1.54-1.31,3.04-1.63,4.65-.35,1.79-1.26,3.38-1.77,5.1-.09,.31-.16,.63-.38,.9,.04-.27,.07-.54,.11-.81h0Zm11.72,.98c-.17,1.09-.58,2.12-.88,3.18-.62,2.21-1.75,4.15-3.24,5.89-1.5,1.75-3.22,3.26-5.23,4.4-1.2,.67-2.48,1.11-3.9,.99-.57-.05-1.16,0-1.73,0-.32,0-.58-.13-.8-.39-.48-.58-1.02-1.09-1.61-1.56-1.44-1.16-2.32-2.71-3.05-4.37-.81-1.86-1.11-3.82-1.27-5.82-.2-2.44,.14-4.82,.76-7.18,.22-.86,.47-1.71,.76-2.54,.48-1.4,1.18-2.68,2.04-3.87,.92-1.28,1.72-2.64,2.68-3.9,.19-.24,.38-.48,.57-.71,.06-.07,.13-.2,.23-.17,.11,.04,.07,.18,.07,.27-.05,1-.1,2-.17,2.99-.22,3.14-.39,6.28-.2,9.42,.06,.99,.07,1.97-.05,2.96-.02,.14-.02,.3,.16,.32,.17,.02,.19-.13,.2-.26,.11-1.94,.44-3.85,.56-5.79,.11-1.74,.2-3.49,.29-5.23,.08-1.54,.23-3.08,.14-4.63,0-.14,0-.28-.03-.41-.12-.5,.11-.78,.54-.99,.23-.11,.3-.1,.31,.16,.03,.93,.12,1.86,.11,2.79-.03,3.18-.07,6.36-.14,9.53-.04,1.59-.25,3.17-.48,4.74-.23,1.61-.51,3.21-.46,4.84,.01,.36-.08,.66-.3,.94-.14,.19-.27,.39-.37,.61-.19,.4-.08,.81,.26,1.02,.32,.2,.76,.11,1.02-.24,.58-.77,1.09-1.59,1.57-2.43,1.12-1.93,2.24-3.87,3.35-5.81,1.39-2.43,2.83-4.84,4.04-7.37,.7-1.45,1.54-2.83,2.24-4.28,.24-.51,.47-1.03,.75-1.61,.15,.37,.05,.67-.03,.95-.16,.56-.09,1.07,.12,1.59,.16,.41,.21,.86,.31,1.29,.35,1.56,.75,3.11,.88,4.71,.16,1.98,.27,3.97-.04,5.94l.02,.03Z"/></svg>