<?xml version="1.0" encoding="UTF-8"?><svg id="a" xmlns="http://www.w3.org/2000/svg" viewBox="0 0 49.3 59"><defs><style>.b,.c,.d,.e,.f,.g{stroke-linecap:round;stroke-linejoin:round;}.b,.c,.e,.f,.g{stroke:#000;}.b,.f{fill:#00dbf7;}.c,.g{fill:none;}.d{fill:#ff750c;stroke:#00dbf7;}.e{fill:#fff;}.e,.g{stroke-width:.52px;}.f{stroke-width:3px;}</style></defs><rect class="f" x="1.5" y="1.5" width="46.3" height="56" rx="5.62" ry="5.62"/><g><rect class="b" x="10.94" y="27.38" width="27.42" height="13.32"/><path class="b" d="M10.94,27.38l18.56-6.56s7.18,2.42,8.86,6.56H10.94Z"/><path class="c" d="M11.01,31.77c1.24,1.24,3.25,1.24,4.5,0h0c1.24-1.24,3.25-1.24,4.5,0l.04,.04c1.24,1.24,3.25,1.24,4.5,0l.07-.07c1.24-1.24,3.25-1.24,4.5,0l.18,.18c1.24,1.24,3.25,1.24,4.5,0"/><path class="c" d="M33.79,31.92c1.24-1.24,3.25-1.24,4.5,0"/><path class="c" d="M11.01,36.24c1.24,1.24,3.25,1.24,4.5,0h0c1.24-1.24,3.25-1.24,4.5,0l.04,.04c1.24,1.24,3.25,1.24,4.5,0l.07-.07c1.24-1.24,3.25-1.24,4.5,0l.18,.18c1.24,1.24,3.25,1.24,4.5,0"/><path class="c" d="M33.79,36.4c1.24-1.24,3.25-1.24,4.5,0"/><circle class="d" cx="25.3" cy="21.66" r="3.37"/><circle class="b" cx="25.3" cy="21.66" r="2.98"/><path class="g" d="M26.95,21.84c0,.86-.7,1.56-1.56,1.56"/><circle class="e" cx="13.28" cy="34.85" r=".1"/><circle class="e" cx="17.8" cy="33.17" r=".1"/><circle class="e" cx="22.18" cy="34.85" r=".1"/><circle class="e" cx="26.81" cy="33.11" r=".1"/><circle class="e" cx="31.43" cy="35.04" r=".1"/><circle class="e" cx="36.04" cy="33.27" r=".1"/></g></svg>