<?xml version="1.0" encoding="UTF-8"?><svg id="a" xmlns="http://www.w3.org/2000/svg" viewBox="0 0 49.3 59"><defs><style>.b{stroke-width:.75px;}.b,.c{fill:none;}.b,.c,.d{stroke:#000;stroke-linecap:round;stroke-linejoin:round;}.d{fill:#2598b7;stroke-width:3px;}</style></defs><rect class="d" x="1.5" y="1.5" width="46.3" height="56" rx="5.62" ry="5.62"/><polygon class="c" points="18.03 14.5 18.03 19.8 22.44 24.58 22.44 49.85 8.39 49.85 8.39 24.58 12.8 19.8 12.8 14.5 18.03 14.5"/><rect class="c" x="12.77" y="9.24" width="5.3" height="3.72"/><rect class="c" x="14.49" y="29.95" width="7.95" height="14.14"/><polyline class="c" points="22.44 31.97 17.39 37.01 22.45 42.07"/><path class="c" d="M34.92,40.03h-1.84c-2.73,0-5.16-1.72-6.08-4.29h0c-.49-1.39-.31-2.7,0-4.31l1.52-7.46h10.91l1.54,7.43c.36,1.6,.51,2.97,0,4.38h0c-.92,2.55-3.35,4.26-6.06,4.26Z"/><line class="c" x1="34.01" y1="40.03" x2="34.01" y2="50.12"/><line class="c" x1="28.03" y1="50.12" x2="39.99" y2="50.12"/><path class="b" d="M38.72,29.5l.37,4.02c.09,.87,.09,1.6-.25,2.32h0c-.73,.94-1.28,1.5-2.08,1.96-.67,.38-1.44,.55-2.2,.55h0"/></svg>