<?xml version="1.0" encoding="UTF-8"?><svg id="a" xmlns="http://www.w3.org/2000/svg" viewBox="0 0 49.3 59"><defs><style>.b{fill:#efa94d;stroke-width:3px;}.b,.c,.d{stroke:#000;stroke-linecap:round;stroke-linejoin:round;}.c{stroke-width:.75px;}.c,.d{fill:none;}</style></defs><rect class="b" x="1.5" y="1.5" width="46.3" height="56" rx="5.62" ry="5.62"/><polygon class="d" points="18.03 14.05 18.03 19.35 22.44 24.14 22.44 49.4 8.39 49.4 8.39 24.14 12.8 19.35 12.8 14.05 18.03 14.05"/><rect class="d" x="12.77" y="8.8" width="5.3" height="3.72"/><rect class="d" x="14.49" y="29.5" width="7.95" height="14.14"/><polyline class="d" points="22.44 31.53 17.39 36.57 22.45 41.62"/><path class="d" d="M34.92,39.59h-1.84c-2.73,0-5.16-1.72-6.08-4.29h0c-.49-1.39-.31-2.7,0-4.31l1.52-7.46h10.91l1.54,7.43c.36,1.6,.51,2.97,0,4.38h0c-.92,2.55-3.35,4.26-6.06,4.26Z"/><line class="d" x1="34.01" y1="39.59" x2="34.01" y2="49.67"/><line class="d" x1="28.03" y1="49.67" x2="39.99" y2="49.67"/><path class="c" d="M38.72,29.05l.37,4.02c.09,.87,.09,1.6-.25,2.32h0c-.73,.94-1.28,1.5-2.08,1.96-.67,.38-1.44,.55-2.2,.55h0"/></svg>