<svg width="22" height="26" viewBox="0 0 22 26" fill="none" xmlns="http://www.w3.org/2000/svg">
<path fill-rule="evenodd" clip-rule="evenodd" d="M14.1583 0C14.2137 0 14.268 0.00473282 14.3209 0.0138215L14.4974 0.0149204C14.7606 0.0149204 15.0122 0.123551 15.1954 0.315946L21.73 7.22253C21.9029 7.40445 21.9998 7.6492 21.9998 7.9018V19.8983C22.0229 23.1821 19.5019 25.8652 16.2598 25.9987L5.91406 26H5.77343C2.61263 25.9275 0.0776187 23.3342 0.000389408 20.159L0 5.87707C0.0748289 2.62992 2.71835 0.0149204 5.896 0.0149204L13.9957 0.0138215C14.0485 0.00473282 14.1029 0 14.1583 0ZM13.1905 1.97761L5.89858 1.97813C3.7608 1.97813 1.98554 3.73455 1.93523 5.90063V19.8983C1.88749 22.1403 3.6292 23.9871 5.8173 24.0368H16.2211C18.3744 23.9465 20.0799 22.1312 20.0646 19.9062L20.0645 9.13941L17.4714 9.14072C15.1104 9.13417 13.1906 7.18143 13.1906 4.78893L13.1905 1.97761ZM13.9173 16.5016C14.4514 16.5016 14.8849 16.9413 14.8849 17.4832C14.8849 18.025 14.4514 18.4648 13.9173 18.4648H6.95044C6.41632 18.4648 5.98282 18.025 5.98282 17.4832C5.98282 16.9413 6.41632 16.5016 6.95044 16.5016H13.9173ZM11.279 11.5909C11.8132 11.5909 12.2466 12.0307 12.2466 12.5725C12.2466 13.1144 11.8132 13.5541 11.279 13.5541H6.94928C6.41516 13.5541 5.98166 13.1144 5.98166 12.5725C5.98166 12.0307 6.41516 11.5909 6.94928 11.5909H11.279ZM15.1257 3.07832L15.1259 4.78893C15.1259 6.10297 16.1799 7.17358 17.474 7.1775L19.0039 7.1762L15.1257 3.07832Z" fill="#5FC56E"/>
</svg>
