<svg width="22" height="26" viewBox="0 0 22 26" fill="none" xmlns="http://www.w3.org/2000/svg">
<path fill-rule="evenodd" clip-rule="evenodd" d="M22 21.1887C22 25.5015 15.7222 26 11.0014 26L10.6636 25.9997C7.65584 25.9928 0 25.8139 0 21.1626C0 16.9378 6.02549 16.3732 10.7104 16.3519L11.3392 16.3516C14.3467 16.3584 22 16.5373 22 21.1887ZM11.0014 18.314C5.08333 18.314 2.08333 19.2718 2.08333 21.1626C2.08333 23.0703 5.08333 24.0373 11.0014 24.0373C16.9181 24.0373 19.9167 23.0795 19.9167 21.1887C19.9167 19.281 16.9181 18.314 11.0014 18.314ZM11.0014 0C15.0681 0 18.375 3.1168 18.375 6.94802C18.375 10.7792 15.0681 13.8947 11.0014 13.8947H10.9569C6.89861 13.883 3.61111 10.7649 3.62496 6.9441C3.62496 3.1168 6.93333 0 11.0014 0ZM11.0014 1.86851C8.02778 1.86851 5.6083 4.14657 5.6083 6.94802C5.59861 9.74032 8 12.0171 10.9611 12.0275L11.0014 12.9618V12.0275C13.9736 12.0275 16.3917 9.74817 16.3917 6.94802C16.3917 4.14657 13.9736 1.86851 11.0014 1.86851Z" fill="#5FC56E"/>
</svg>
