<svg width="22" height="22" viewBox="0 0 22 22" fill="none" xmlns="http://www.w3.org/2000/svg">
<path fill-rule="evenodd" clip-rule="evenodd" d="M7.27093 16.0952C7.27093 15.6398 7.63101 15.2702 8.07468 15.2702C8.51835 15.2702 8.87844 15.6398 8.87844 16.0952V17.1215C8.87844 18.9024 10.2888 20.35 12.0227 20.35H17.2471C18.9822 20.35 20.3925 18.9024 20.3925 17.1215V4.8785C20.3925 3.0987 18.9822 1.65 17.2471 1.65H12.0131C10.2845 1.65 8.87844 3.0932 8.87844 4.8664V5.9037C8.87844 6.3591 8.51835 6.7287 8.07468 6.7287C7.63101 6.7287 7.27093 6.3591 7.27093 5.9037V4.8664C7.27093 2.1835 9.3982 0 12.0131 0H17.2471C19.8684 0 22 2.189 22 4.8785V17.1215C22 19.811 19.8684 22 17.2471 22H12.0227C9.40248 22 7.27093 19.811 7.27093 17.1215V16.0952ZM0.227463 10.4163L3.36532 7.20874C3.68039 6.88754 4.18837 6.88864 4.5013 7.21094C4.81422 7.53434 4.81422 8.05574 4.49915 8.37694L2.74027 10.1761L14.5014 10.1754V11.8254L2.74027 11.8261L4.49915 13.6228C4.65776 13.7834 4.73599 13.9957 4.73599 14.2069C4.73599 14.417 4.65776 14.6282 4.5013 14.7888C4.18837 15.1111 3.68039 15.1133 3.36532 14.791L0.227463 11.5845C-0.0758209 11.2754 -0.0758209 10.7254 0.227463 10.4163Z" fill="#5FC56E"/>
</svg>
