<svg width="22" height="22" viewBox="0 0 22 22" fill="none" xmlns="http://www.w3.org/2000/svg">
<path fill-rule="evenodd" clip-rule="evenodd" d="M13.7472 0.894852C14.1885 0.894852 14.5466 1.2519 14.5466 1.69183C14.5466 2.13177 14.1885 2.48882 13.7472 2.48882H6.00008C3.32674 2.48882 1.59888 4.32081 1.59888 7.15807V15.7463C1.59888 18.6208 3.28517 20.406 6.00008 20.406H15.1713C17.8446 20.406 19.5725 18.5772 19.5725 15.7463V8.26641C19.5725 7.82647 19.9306 7.46942 20.3719 7.46942C20.8132 7.46942 21.1714 7.82647 21.1714 8.26641V15.7463C21.1714 19.4869 18.7602 22 15.1713 22H6.00008C2.41112 22 0 19.4869 0 15.7463V7.15807C0 3.41225 2.41112 0.894852 6.00008 0.894852H13.7472ZM16.0021 8.15249C16.3517 8.4224 16.4156 8.9229 16.1449 9.27039L13.0217 13.2872C12.8917 13.4551 12.6998 13.5645 12.4888 13.59C12.2756 13.6187 12.0645 13.5571 11.8961 13.4264L8.89235 11.0737L6.1945 14.5687C6.03675 14.7728 5.80011 14.8801 5.56028 14.8801C5.38973 14.8801 5.21812 14.8259 5.07315 14.7154C4.72353 14.4465 4.65744 13.946 4.92712 13.5975L8.11743 9.46379C8.24747 9.29483 8.4404 9.18538 8.65145 9.15881C8.86677 9.13118 9.07782 9.19069 9.24517 9.32352L12.2511 11.6773L14.8807 8.29488C15.1514 7.94527 15.6524 7.88045 16.0021 8.15249ZM19.1519 0C20.723 0 22 1.27305 22 2.83938C22 4.40572 20.723 5.67983 19.1519 5.67983C17.5818 5.67983 16.3037 4.40572 16.3037 2.83938C16.3037 1.27305 17.5818 0 19.1519 0ZM19.1519 1.59396C18.4633 1.59396 17.9026 2.15185 17.9026 2.83938C17.9026 3.52585 18.4633 4.08586 19.1519 4.08586C19.8404 4.08586 20.4011 3.52585 20.4011 2.83938C20.4011 2.15185 19.8404 1.59396 19.1519 1.59396Z" fill="#5FC56E"/>
</svg>
