<svg width="30" height="31" viewBox="0 0 30 31" fill="none" xmlns="http://www.w3.org/2000/svg">
<path d="M14.567 1.78711C14.7594 1.45378 15.2406 1.45377 15.433 1.78711L26.6913 21.2871C26.8838 21.6204 26.6432 22.0371 26.2583 22.0371H3.74167C3.35677 22.0371 3.11621 21.6204 3.30866 21.2871L14.567 1.78711Z" fill="#06C0B0" stroke="#06C0B0"/>
<path d="M16.0491 6.9462L15.8829 16.2722H14.1123L13.9461 6.9462H16.0491ZM15.0008 20.1586C14.6471 20.1586 14.3445 20.035 14.0931 19.7878C13.8417 19.5364 13.7181 19.2338 13.7224 18.8801C13.7181 18.5307 13.8417 18.2324 14.0931 17.9853C14.3445 17.7338 14.6471 17.6081 15.0008 17.6081C15.346 17.6081 15.6443 17.7338 15.8957 17.9853C16.1471 18.2324 16.2749 18.5307 16.2792 18.8801C16.2749 19.1145 16.2132 19.3297 16.0938 19.5257C15.9788 19.7175 15.8254 19.8709 15.6336 19.986C15.4419 20.101 15.2309 20.1586 15.0008 20.1586Z" fill="white"/>
</svg>
