<svg width="150" height="150" viewBox="0 0 150 150" fill="none" xmlns="http://www.w3.org/2000/svg">
<path d="M117.715 105.783C105.748 130.203 74.5464 141.068 48.0235 130.05C21.5007 119.032 9.70068 90.3034 21.6674 65.8831C33.6341 41.4628 75.4531 8.93192 101.976 19.95C128.499 30.9681 129.682 81.3628 117.715 105.783Z" fill="#5FC56D"/>
<path d="M108.109 101.791C98.5361 121.327 73.5746 130.019 52.3564 121.204C31.1381 112.39 21.6981 89.4068 31.2714 69.8706C40.8448 50.3343 74.69 23.5137 95.9083 32.3282C117.127 41.1426 117.683 82.2543 108.109 101.791Z" fill="#DBF4AA"/>
<path d="M90.9929 89.5361C86.2457 99.2235 73.797 103.504 63.1879 99.0967C52.5788 94.6894 47.8267 83.2635 52.5738 73.5761C57.3209 63.8887 69.9129 59.3159 80.522 63.7232C91.1311 68.1304 95.74 79.8487 90.9929 89.5361Z" fill="#7F7158"/>
</svg>
