<svg width="150" height="163" viewBox="0 0 150 163" fill="none" xmlns="http://www.w3.org/2000/svg">
<path d="M62.1697 149.203V162H60.4998V149.203H62.1697ZM66.283 149.203V150.592H56.3953V149.203H66.283ZM74.7012 156.981H71.2822V155.602H74.7012C75.3633 155.602 75.8994 155.496 76.3096 155.285C76.7197 155.074 77.0186 154.781 77.2061 154.406C77.3994 154.031 77.4961 153.604 77.4961 153.123C77.4961 152.684 77.3994 152.271 77.2061 151.884C77.0186 151.497 76.7197 151.187 76.3096 150.952C75.8994 150.712 75.3633 150.592 74.7012 150.592H71.6777V162H69.9814V149.203H74.7012C75.668 149.203 76.4854 149.37 77.1533 149.704C77.8213 150.038 78.3281 150.501 78.6738 151.093C79.0195 151.679 79.1924 152.35 79.1924 153.105C79.1924 153.926 79.0195 154.626 78.6738 155.206C78.3281 155.786 77.8213 156.229 77.1533 156.533C76.4854 156.832 75.668 156.981 74.7012 156.981ZM92.9895 155.197V156.006C92.9895 156.967 92.8693 157.828 92.6291 158.59C92.3889 159.352 92.0432 159.999 91.592 160.532C91.1408 161.065 90.5988 161.473 89.966 161.754C89.3391 162.035 88.6359 162.176 87.8566 162.176C87.1008 162.176 86.4064 162.035 85.7736 161.754C85.1467 161.473 84.6018 161.065 84.1389 160.532C83.6818 159.999 83.3273 159.352 83.0754 158.59C82.8234 157.828 82.6975 156.967 82.6975 156.006V155.197C82.6975 154.236 82.8205 153.378 83.0666 152.622C83.3186 151.86 83.673 151.213 84.1301 150.68C84.5871 150.141 85.1291 149.73 85.7561 149.449C86.3889 149.168 87.0832 149.027 87.8391 149.027C88.6184 149.027 89.3215 149.168 89.9484 149.449C90.5813 149.73 91.1232 150.141 91.5744 150.68C92.0314 151.213 92.3801 151.86 92.6203 152.622C92.8664 153.378 92.9895 154.236 92.9895 155.197ZM91.3107 156.006V155.18C91.3107 154.418 91.2316 153.744 91.0734 153.158C90.9211 152.572 90.6955 152.08 90.3967 151.682C90.0979 151.283 89.7316 150.981 89.298 150.776C88.8703 150.571 88.384 150.469 87.8391 150.469C87.3117 150.469 86.8342 150.571 86.4064 150.776C85.9846 150.981 85.6213 151.283 85.3166 151.682C85.0178 152.08 84.7863 152.572 84.6223 153.158C84.4582 153.744 84.3762 154.418 84.3762 155.18V156.006C84.3762 156.773 84.4582 157.453 84.6223 158.045C84.7863 158.631 85.0207 159.126 85.3254 159.53C85.6359 159.929 86.0021 160.23 86.424 160.436C86.8518 160.641 87.3293 160.743 87.8566 160.743C88.4074 160.743 88.8967 160.641 89.3244 160.436C89.7521 160.23 90.1125 159.929 90.4055 159.53C90.7043 159.126 90.9299 158.631 91.0822 158.045C91.2346 157.453 91.3107 156.773 91.3107 156.006Z" fill="#D0D1D0"/>
<path d="M117.715 105.783C105.748 130.203 74.5464 141.068 48.0235 130.05C21.5007 119.032 9.70068 90.3034 21.6674 65.8831C33.6341 41.4628 75.4531 8.93192 101.976 19.95C128.499 30.9681 129.682 81.3628 117.715 105.783Z" fill="#D0D2D0"/>
<path d="M108.109 101.791C98.5361 121.327 73.5746 130.019 52.3564 121.204C31.1381 112.39 21.6981 89.4068 31.2714 69.8706C40.8448 50.3343 74.69 23.5137 95.9083 32.3282C117.127 41.1426 117.683 82.2543 108.109 101.791Z" fill="white"/>
<path d="M90.9929 89.5361C86.2457 99.2235 73.797 103.504 63.1879 99.0967C52.5788 94.6894 47.8267 83.2635 52.5738 73.5761C57.3209 63.8887 69.9129 59.3159 80.522 63.7232C91.1311 68.1304 95.74 79.8487 90.9929 89.5361Z" fill="#B1B1B1"/>
</svg>
