<svg width="173" height="179" viewBox="0 0 173 179" fill="none" xmlns="http://www.w3.org/2000/svg">
<path d="M129.715 105.783C117.748 130.203 86.5464 141.068 60.0236 130.05C33.5007 119.032 21.7007 90.3034 33.6674 65.8831C45.6341 41.4628 87.4531 8.93192 113.976 19.95C140.499 30.9681 141.682 81.3628 129.715 105.783Z" fill="#5FC56E"/>
<path d="M120.112 101.793C110.539 121.329 85.5775 130.02 64.3593 121.206C43.141 112.392 33.701 89.4088 43.2744 69.8725C52.8477 50.3363 86.693 23.5157 107.911 32.3301C129.129 41.1446 129.686 82.2563 120.112 101.793Z" fill="#DBF4AA"/>
<path d="M102.996 89.538C98.2487 99.2254 85.8 103.506 75.1908 99.0986C64.5817 94.6914 59.8296 83.2654 64.5767 73.578C69.3239 63.8906 81.9158 59.3179 92.525 63.7251C103.134 68.1324 107.743 79.8506 102.996 89.538Z" fill="#7F7158"/>
<path d="M23.2574 144.406V170H17.984L7.70078 152.844V170H2.42735V144.406H7.70078L18.0016 161.58V144.406H23.2574ZM30.3203 160.684V160.314C30.3203 158.92 30.5195 157.637 30.918 156.465C31.3164 155.281 31.8965 154.256 32.6582 153.389C33.4199 152.521 34.3574 151.848 35.4707 151.367C36.584 150.875 37.8613 150.629 39.3027 150.629C40.7441 150.629 42.0273 150.875 43.1523 151.367C44.2773 151.848 45.2207 152.521 45.9824 153.389C46.7559 154.256 47.3418 155.281 47.7402 156.465C48.1387 157.637 48.3379 158.92 48.3379 160.314V160.684C48.3379 162.066 48.1387 163.35 47.7402 164.533C47.3418 165.705 46.7559 166.73 45.9824 167.609C45.2207 168.477 44.2832 169.15 43.1699 169.631C42.0566 170.111 40.7793 170.352 39.3379 170.352C37.8965 170.352 36.6133 170.111 35.4883 169.631C34.375 169.15 33.4316 168.477 32.6582 167.609C31.8965 166.73 31.3164 165.705 30.918 164.533C30.5195 163.35 30.3203 162.066 30.3203 160.684ZM35.3828 160.314V160.684C35.3828 161.48 35.4531 162.225 35.5938 162.916C35.7344 163.607 35.957 164.217 36.2617 164.744C36.5781 165.26 36.9883 165.664 37.4922 165.957C37.9961 166.25 38.6113 166.396 39.3379 166.396C40.041 166.396 40.6445 166.25 41.1484 165.957C41.6523 165.664 42.0566 165.26 42.3613 164.744C42.666 164.217 42.8887 163.607 43.0293 162.916C43.1816 162.225 43.2578 161.48 43.2578 160.684V160.314C43.2578 159.541 43.1816 158.814 43.0293 158.135C42.8887 157.443 42.6602 156.834 42.3438 156.307C42.0391 155.768 41.6348 155.346 41.1309 155.041C40.627 154.736 40.0176 154.584 39.3027 154.584C38.5879 154.584 37.9785 154.736 37.4746 155.041C36.9824 155.346 36.5781 155.768 36.2617 156.307C35.957 156.834 35.7344 157.443 35.5938 158.135C35.4531 158.814 35.3828 159.541 35.3828 160.314ZM72.6766 154.637V177.312H67.6141V150.98H72.3074L72.6766 154.637ZM84.7176 160.279V160.648C84.7176 162.031 84.5535 163.314 84.2254 164.498C83.909 165.682 83.4402 166.713 82.8191 167.592C82.1981 168.459 81.4246 169.139 80.4988 169.631C79.5848 170.111 78.5301 170.352 77.3348 170.352C76.1746 170.352 75.1668 170.117 74.3113 169.648C73.4559 169.18 72.7352 168.523 72.1492 167.68C71.575 166.824 71.1121 165.834 70.7606 164.709C70.409 163.584 70.1395 162.377 69.952 161.088V160.121C70.1395 158.738 70.409 157.473 70.7606 156.324C71.1121 155.164 71.575 154.162 72.1492 153.318C72.7352 152.463 73.45 151.801 74.2938 151.332C75.1492 150.863 76.1512 150.629 77.2996 150.629C78.5066 150.629 79.5672 150.857 80.4813 151.314C81.407 151.771 82.1805 152.428 82.8016 153.283C83.4344 154.139 83.909 155.158 84.2254 156.342C84.5535 157.525 84.7176 158.838 84.7176 160.279ZM79.6375 160.648V160.279C79.6375 159.471 79.5672 158.727 79.4266 158.047C79.2977 157.355 79.0867 156.752 78.7938 156.236C78.5125 155.721 78.1375 155.322 77.6688 155.041C77.2117 154.748 76.6551 154.602 75.9988 154.602C75.3074 154.602 74.7156 154.713 74.2234 154.936C73.743 155.158 73.3504 155.48 73.0457 155.902C72.741 156.324 72.5125 156.828 72.3602 157.414C72.2078 158 72.1141 158.662 72.0789 159.4V161.844C72.1375 162.711 72.3016 163.49 72.5711 164.182C72.8406 164.861 73.2566 165.4 73.8191 165.799C74.3816 166.197 75.1199 166.396 76.034 166.396C76.702 166.396 77.2645 166.25 77.7215 165.957C78.1785 165.652 78.5477 165.236 78.8289 164.709C79.1219 164.182 79.327 163.572 79.4441 162.881C79.5731 162.189 79.6375 161.445 79.6375 160.648ZM96.4035 143V170H91.341V143H96.4035ZM95.6828 159.822H94.2941C94.3059 158.498 94.4816 157.279 94.8215 156.166C95.1613 155.041 95.6477 154.068 96.2805 153.248C96.9133 152.416 97.6691 151.771 98.548 151.314C99.4387 150.857 100.423 150.629 101.501 150.629C102.439 150.629 103.288 150.764 104.05 151.033C104.823 151.291 105.486 151.713 106.036 152.299C106.599 152.873 107.032 153.629 107.337 154.566C107.642 155.504 107.794 156.641 107.794 157.977V170H102.696V157.941C102.696 157.098 102.573 156.436 102.327 155.955C102.093 155.463 101.747 155.117 101.29 154.918C100.845 154.707 100.294 154.602 99.6379 154.602C98.9113 154.602 98.2902 154.736 97.7746 155.006C97.2707 155.275 96.8664 155.65 96.5617 156.131C96.257 156.6 96.0344 157.15 95.8938 157.783C95.7531 158.416 95.6828 159.096 95.6828 159.822ZM114.435 160.684V160.314C114.435 158.92 114.634 157.637 115.033 156.465C115.431 155.281 116.011 154.256 116.773 153.389C117.535 152.521 118.472 151.848 119.586 151.367C120.699 150.875 121.976 150.629 123.418 150.629C124.859 150.629 126.142 150.875 127.267 151.367C128.392 151.848 129.336 152.521 130.097 153.389C130.871 154.256 131.457 155.281 131.855 156.465C132.254 157.637 132.453 158.92 132.453 160.314V160.684C132.453 162.066 132.254 163.35 131.855 164.533C131.457 165.705 130.871 166.73 130.097 167.609C129.336 168.477 128.398 169.15 127.285 169.631C126.171 170.111 124.894 170.352 123.453 170.352C122.011 170.352 120.728 170.111 119.603 169.631C118.49 169.15 117.546 168.477 116.773 167.609C116.011 166.73 115.431 165.705 115.033 164.533C114.634 163.35 114.435 162.066 114.435 160.684ZM119.498 160.314V160.684C119.498 161.48 119.568 162.225 119.709 162.916C119.849 163.607 120.072 164.217 120.377 164.744C120.693 165.26 121.103 165.664 121.607 165.957C122.111 166.25 122.726 166.396 123.453 166.396C124.156 166.396 124.759 166.25 125.263 165.957C125.767 165.664 126.171 165.26 126.476 164.744C126.781 164.217 127.004 163.607 127.144 162.916C127.296 162.225 127.373 161.48 127.373 160.684V160.314C127.373 159.541 127.296 158.814 127.144 158.135C127.004 157.443 126.775 156.834 126.459 156.307C126.154 155.768 125.75 155.346 125.246 155.041C124.742 154.736 124.132 154.584 123.418 154.584C122.703 154.584 122.093 154.736 121.589 155.041C121.097 155.346 120.693 155.768 120.377 156.307C120.072 156.834 119.849 157.443 119.709 158.135C119.568 158.814 119.498 159.541 119.498 160.314ZM148.48 150.98V154.566H137.406V150.98H148.48ZM140.148 146.287H145.211V164.27C145.211 164.82 145.281 165.242 145.422 165.535C145.574 165.828 145.797 166.033 146.09 166.15C146.383 166.256 146.752 166.309 147.197 166.309C147.514 166.309 147.795 166.297 148.041 166.273C148.299 166.238 148.516 166.203 148.691 166.168L148.709 169.895C148.275 170.035 147.807 170.146 147.303 170.229C146.799 170.311 146.242 170.352 145.633 170.352C144.52 170.352 143.547 170.17 142.715 169.807C141.895 169.432 141.262 168.834 140.816 168.014C140.371 167.193 140.148 166.115 140.148 164.779V146.287ZM153.698 160.684V160.314C153.698 158.92 153.897 157.637 154.295 156.465C154.694 155.281 155.274 154.256 156.036 153.389C156.797 152.521 157.735 151.848 158.848 151.367C159.961 150.875 161.239 150.629 162.68 150.629C164.121 150.629 165.405 150.875 166.53 151.367C167.655 151.848 168.598 152.521 169.36 153.389C170.133 154.256 170.719 155.281 171.118 156.465C171.516 157.637 171.715 158.92 171.715 160.314V160.684C171.715 162.066 171.516 163.35 171.118 164.533C170.719 165.705 170.133 166.73 169.36 167.609C168.598 168.477 167.661 169.15 166.547 169.631C165.434 170.111 164.157 170.352 162.715 170.352C161.274 170.352 159.991 170.111 158.866 169.631C157.752 169.15 156.809 168.477 156.036 167.609C155.274 166.73 154.694 165.705 154.295 164.533C153.897 163.35 153.698 162.066 153.698 160.684ZM158.76 160.314V160.684C158.76 161.48 158.83 162.225 158.971 162.916C159.112 163.607 159.334 164.217 159.639 164.744C159.955 165.26 160.366 165.664 160.87 165.957C161.373 166.25 161.989 166.396 162.715 166.396C163.418 166.396 164.022 166.25 164.526 165.957C165.03 165.664 165.434 165.26 165.739 164.744C166.043 164.217 166.266 163.607 166.407 162.916C166.559 162.225 166.635 161.48 166.635 160.684V160.314C166.635 159.541 166.559 158.814 166.407 158.135C166.266 157.443 166.038 156.834 165.721 156.307C165.416 155.768 165.012 155.346 164.508 155.041C164.004 154.736 163.395 154.584 162.68 154.584C161.965 154.584 161.356 154.736 160.852 155.041C160.36 155.346 159.955 155.768 159.639 156.307C159.334 156.834 159.112 157.443 158.971 158.135C158.83 158.814 158.76 159.541 158.76 160.314Z" fill="#5FC56D"/>
</svg>
