<svg width="16" height="20" viewBox="0 0 16 20" fill="none" xmlns="http://www.w3.org/2000/svg">
<path fill-rule="evenodd" clip-rule="evenodd" d="M6.33548 17.773C6.78356 18.3098 7.35878 18.6047 7.95564 18.6047H7.9565C8.55595 18.6047 9.13377 18.3098 9.58271 17.7721C9.82318 17.4865 10.2332 17.4633 10.4987 17.7209C10.7652 17.9786 10.7868 18.4205 10.5472 18.706C9.84826 19.5405 8.92877 20 7.9565 20H7.95477C6.9851 19.9991 6.06733 19.5395 5.371 18.7051C5.1314 18.4195 5.15302 17.9777 5.41944 17.7209C5.68587 17.4623 6.09588 17.4856 6.33548 17.773ZM7.99871 0C11.8437 0 14.4266 3.22047 14.4266 6.22791C14.4266 7.77488 14.7925 8.4307 15.1808 9.12651C15.5649 9.81302 16 10.5926 16 12.066C15.6981 15.8307 12.0435 16.1377 7.99871 16.1377C3.95396 16.1377 0.298449 15.8307 1.14495e-05 12.1256C-0.00257201 10.5926 0.432525 9.81302 0.816587 9.12651L0.952171 8.88107C1.286 8.26405 1.57087 7.59289 1.57087 6.22791C1.57087 3.22047 4.15377 0 7.99871 0ZM7.99871 1.39535C4.97552 1.39535 2.86838 3.94233 2.86838 6.22791C2.86838 8.16186 2.36927 9.05581 1.92812 9.84465C1.57433 10.4781 1.29493 10.9786 1.29493 12.066C1.43939 13.8205 2.51632 14.7423 7.99871 14.7423C13.4508 14.7423 14.5615 13.7795 14.7051 12.0056C14.7025 10.9786 14.4231 10.4781 14.0693 9.84465C13.6282 9.05581 13.1291 8.16186 13.1291 6.22791C13.1291 3.94233 11.0219 1.39535 7.99871 1.39535Z" fill="#5FC56E"/>
</svg>
