<svg width="20" height="20" viewBox="0 0 20 20" fill="none" xmlns="http://www.w3.org/2000/svg">
<path d="M3.58363 16.3076C3.59961 16.3076 3.61417 16.3119 3.62608 16.3189L3.59993 16.3452L3.56759 16.3852L1.50546 18.9399L1.48189 18.9691C1.35508 19.0265 1.19867 19.0039 1.09511 18.9015C0.973295 18.781 0.968493 18.5926 1.08071 18.4668L3.47898 16.3742L3.479 16.3742L3.4848 16.3691L3.54205 16.3183C3.55386 16.3117 3.56816 16.3076 3.58363 16.3076ZM19 8.57764C19 10.5839 18.1945 12.5101 16.7573 13.9321C15.3197 15.3544 13.3677 16.1553 11.3301 16.1553C7.08397 16.1553 3.66015 12.7526 3.66015 8.57764C3.66015 4.40269 7.08397 1 11.3301 1C15.5762 1 19 4.40269 19 8.57764Z" fill="#E8E8E8" stroke="#969696" stroke-width="2"/>
</svg>
