<svg width="236" height="229" viewBox="0 0 236 229" fill="none" xmlns="http://www.w3.org/2000/svg">
<rect x="1.5" y="1.5" width="233" height="226" rx="38.5" fill="white" stroke="#E8E8E8" stroke-width="3"/>
<path d="M22.2707 125.796V115.996H30.7127V125.796H29.3407V116.85L29.6767 117.214H23.3067L23.6567 116.85V125.796H22.2707ZM33.5448 125.796V118.376H34.8888V121.526H39.1168V118.376H40.4608V125.796H39.1168V122.688H34.8888V125.796H33.5448Z" fill="black"/>
<path d="M54.279 120.298H51.7428L51.7291 119.047H53.944C54.3177 119.047 54.6344 118.992 54.8942 118.883C55.1585 118.769 55.359 118.607 55.4958 118.397C55.6325 118.183 55.7008 117.926 55.7008 117.625C55.7008 117.292 55.637 117.021 55.5094 116.812C55.3818 116.602 55.1859 116.449 54.9215 116.354C54.6618 116.258 54.3291 116.21 53.9235 116.21H52.2624V124.796H50.5465V114.843H53.9235C54.4704 114.843 54.958 114.895 55.3864 115C55.8193 115.105 56.1862 115.269 56.487 115.492C56.7923 115.711 57.0224 115.989 57.1774 116.326C57.3369 116.663 57.4166 117.064 57.4166 117.529C57.4166 117.939 57.3187 118.315 57.1227 118.657C56.9267 118.994 56.6374 119.27 56.2545 119.484C55.8717 119.699 55.3955 119.826 54.8258 119.867L54.279 120.298ZM54.2038 124.796H51.2028L51.9752 123.436H54.2038C54.5911 123.436 54.9147 123.372 55.1745 123.244C55.4342 123.112 55.6279 122.932 55.7555 122.704C55.8877 122.472 55.9538 122.201 55.9538 121.891C55.9538 121.567 55.8968 121.287 55.7829 121.05C55.6689 120.808 55.4889 120.624 55.2428 120.496C54.9967 120.364 54.6754 120.298 54.279 120.298H52.3512L52.3649 119.047H54.8737L55.2633 119.519C55.8102 119.537 56.2591 119.658 56.61 119.881C56.9655 120.104 57.2298 120.394 57.403 120.749C57.5762 121.104 57.6627 121.487 57.6627 121.897C57.6627 122.531 57.5237 123.062 57.2458 123.49C56.9723 123.919 56.5781 124.244 56.0631 124.468C55.5482 124.687 54.9284 124.796 54.2038 124.796ZM62.6598 117.399V124.796H61.0055V117.399H62.6598ZM65.0866 117.399V118.698H58.6198V117.399H65.0866Z" fill="black"/>
<path d="M83.4925 121.979H85.2015C85.1468 122.631 84.9645 123.212 84.6546 123.723C84.3447 124.229 83.9095 124.627 83.3489 124.919C82.7884 125.211 82.107 125.356 81.305 125.356C80.6897 125.356 80.136 125.247 79.6438 125.028C79.1516 124.805 78.7301 124.491 78.3792 124.085C78.0283 123.675 77.7594 123.18 77.5725 122.602C77.3903 122.023 77.2991 121.376 77.2991 120.66V119.833C77.2991 119.118 77.3925 118.47 77.5794 117.892C77.7708 117.313 78.0442 116.818 78.3997 116.408C78.7552 115.993 79.1813 115.677 79.678 115.458C80.1793 115.239 80.7421 115.13 81.3665 115.13C82.1595 115.13 82.8294 115.276 83.3763 115.567C83.9231 115.859 84.347 116.262 84.6477 116.777C84.9531 117.292 85.1399 117.882 85.2083 118.548H83.4993C83.4537 118.119 83.3535 117.753 83.1985 117.447C83.0481 117.142 82.8248 116.91 82.5286 116.75C82.2324 116.586 81.845 116.504 81.3665 116.504C80.9746 116.504 80.6328 116.577 80.3411 116.723C80.0494 116.868 79.8056 117.083 79.6097 117.365C79.4137 117.648 79.2656 117.996 79.1653 118.411C79.0696 118.821 79.0218 119.291 79.0218 119.819V120.66C79.0218 121.161 79.0651 121.617 79.1516 122.027C79.2428 122.433 79.3795 122.782 79.5618 123.073C79.7487 123.365 79.9856 123.59 80.2727 123.75C80.5598 123.91 80.9039 123.989 81.305 123.989C81.7926 123.989 82.1868 123.912 82.4876 123.757C82.7929 123.602 83.0231 123.376 83.178 123.08C83.3375 122.779 83.4423 122.412 83.4925 121.979ZM88.2503 119.245V128.063H86.6028V117.823H88.1204L88.2503 119.245ZM93.0696 121.453V121.597C93.0696 122.134 93.0058 122.633 92.8782 123.094C92.7552 123.549 92.5706 123.948 92.3245 124.29C92.083 124.627 91.7845 124.889 91.429 125.076C91.0735 125.263 90.6634 125.356 90.1985 125.356C89.7382 125.356 89.3349 125.272 88.9886 125.104C88.6468 124.93 88.3574 124.687 88.1204 124.372C87.8834 124.058 87.692 123.688 87.5462 123.265C87.4049 122.836 87.3046 122.367 87.2454 121.856V121.303C87.3046 120.76 87.4049 120.268 87.5462 119.826C87.692 119.384 87.8834 119.004 88.1204 118.685C88.3574 118.366 88.6468 118.119 88.9886 117.946C89.3304 117.773 89.7291 117.687 90.1848 117.687C90.6497 117.687 91.0621 117.778 91.4222 117.96C91.7822 118.138 92.0852 118.393 92.3313 118.726C92.5774 119.054 92.762 119.45 92.885 119.915C93.0081 120.375 93.0696 120.888 93.0696 121.453ZM91.4222 121.597V121.453C91.4222 121.111 91.3903 120.795 91.3265 120.503C91.2626 120.207 91.1624 119.947 91.0257 119.724C90.889 119.5 90.7135 119.327 90.4993 119.204C90.2897 119.076 90.0367 119.013 89.7405 119.013C89.4488 119.013 89.1982 119.063 88.9886 119.163C88.7789 119.259 88.6035 119.393 88.4622 119.566C88.3209 119.74 88.2115 119.942 88.1341 120.175C88.0566 120.403 88.0019 120.651 87.97 120.92V122.246C88.0247 122.574 88.1181 122.875 88.2503 123.148C88.3824 123.422 88.5693 123.641 88.8108 123.805C89.0569 123.964 89.3714 124.044 89.7542 124.044C90.0504 124.044 90.3033 123.98 90.513 123.853C90.7226 123.725 90.8935 123.549 91.0257 123.326C91.1624 123.098 91.2626 122.836 91.3265 122.54C91.3903 122.244 91.4222 121.929 91.4222 121.597Z" fill="black"/>
<path d="M104.01 115.267H105.726V118.35C105.726 118.819 105.796 119.188 105.938 119.457C106.079 119.721 106.293 119.908 106.58 120.018C106.872 120.127 107.234 120.182 107.667 120.182C107.877 120.182 108.098 120.173 108.33 120.154C108.563 120.136 108.795 120.111 109.027 120.079C109.264 120.043 109.492 120.002 109.711 119.956C109.93 119.906 110.13 119.851 110.313 119.792V121.152C110.135 121.207 109.939 121.259 109.725 121.31C109.515 121.36 109.296 121.403 109.068 121.439C108.841 121.471 108.608 121.496 108.371 121.515C108.134 121.533 107.899 121.542 107.667 121.542C106.915 121.542 106.266 121.435 105.719 121.221C105.172 121.002 104.75 120.658 104.454 120.188C104.158 119.719 104.01 119.106 104.01 118.35V115.267ZM109.923 115.267H111.639V125.22H109.923V115.267ZM116.964 117.823V125.22H115.31V117.823H116.964ZM119.391 117.823V119.122H112.924V117.823H119.391Z" fill="black"/>
<path d="M139.378 115.267V125.22H137.669V116.634H133.246V125.22H131.537V115.267H139.378ZM144.71 117.823V125.22H143.056V117.823H144.71ZM147.137 117.823V119.122H140.67V117.823H147.137Z" fill="black"/>
<path d="M164.711 121.979H166.42C166.365 122.631 166.183 123.212 165.873 123.723C165.563 124.229 165.128 124.627 164.567 124.919C164.007 125.211 163.326 125.356 162.524 125.356C161.908 125.356 161.355 125.247 160.862 125.028C160.37 124.805 159.949 124.491 159.598 124.085C159.247 123.675 158.978 123.18 158.791 122.602C158.609 122.023 158.518 121.376 158.518 120.66V119.833C158.518 119.118 158.611 118.47 158.798 117.892C158.989 117.313 159.263 116.818 159.618 116.408C159.974 115.993 160.4 115.677 160.897 115.458C161.398 115.239 161.961 115.13 162.585 115.13C163.378 115.13 164.048 115.276 164.595 115.567C165.142 115.859 165.566 116.262 165.866 116.777C166.172 117.292 166.358 117.882 166.427 118.548H164.718C164.672 118.119 164.572 117.753 164.417 117.447C164.267 117.142 164.043 116.91 163.747 116.75C163.451 116.586 163.064 116.504 162.585 116.504C162.193 116.504 161.851 116.577 161.56 116.723C161.268 116.868 161.024 117.083 160.828 117.365C160.632 117.648 160.484 117.996 160.384 118.411C160.288 118.821 160.24 119.291 160.24 119.819V120.66C160.24 121.161 160.284 121.617 160.37 122.027C160.461 122.433 160.598 122.782 160.78 123.073C160.967 123.365 161.204 123.59 161.491 123.75C161.778 123.91 162.122 123.989 162.524 123.989C163.011 123.989 163.405 123.912 163.706 123.757C164.011 123.602 164.242 123.376 164.397 123.08C164.556 122.779 164.661 122.412 164.711 121.979ZM172.456 114.583H173.789C173.789 114.989 173.732 115.324 173.618 115.588C173.509 115.848 173.345 116.062 173.126 116.23C172.912 116.395 172.645 116.527 172.326 116.627C172.012 116.727 171.647 116.818 171.232 116.9C170.85 116.982 170.503 117.112 170.193 117.29C169.888 117.463 169.631 117.707 169.421 118.021C169.216 118.331 169.068 118.73 168.977 119.218C168.885 119.705 168.858 120.3 168.895 121.002V121.467L167.589 121.583V121.118C167.589 120.248 167.669 119.489 167.828 118.842C167.988 118.195 168.213 117.65 168.505 117.208C168.801 116.761 169.152 116.406 169.558 116.142C169.968 115.877 170.424 115.695 170.925 115.595C171.267 115.522 171.552 115.449 171.779 115.376C172.007 115.299 172.176 115.201 172.285 115.082C172.399 114.959 172.456 114.793 172.456 114.583ZM171.301 118.24C171.793 118.24 172.231 118.327 172.613 118.5C172.996 118.669 173.32 118.906 173.584 119.211C173.848 119.516 174.049 119.876 174.186 120.291C174.327 120.706 174.398 121.157 174.398 121.645V121.795C174.398 122.305 174.322 122.777 174.172 123.21C174.022 123.643 173.801 124.021 173.509 124.345C173.217 124.664 172.859 124.914 172.436 125.097C172.016 125.274 171.536 125.363 170.993 125.363C170.455 125.363 169.975 125.27 169.551 125.083C169.127 124.896 168.769 124.636 168.478 124.304C168.186 123.966 167.965 123.572 167.815 123.121C167.664 122.67 167.589 122.178 167.589 121.645V121.494C167.584 121.398 167.609 121.305 167.664 121.214C167.723 121.123 167.794 121.025 167.876 120.92C167.958 120.815 168.031 120.694 168.095 120.558C168.323 120.097 168.592 119.694 168.901 119.348C169.211 119.001 169.565 118.73 169.961 118.534C170.362 118.338 170.809 118.24 171.301 118.24ZM170.98 119.546C170.569 119.546 170.234 119.644 169.975 119.84C169.719 120.031 169.53 120.286 169.407 120.605C169.289 120.924 169.23 121.271 169.23 121.645V121.795C169.23 122.1 169.264 122.39 169.332 122.663C169.4 122.937 169.503 123.178 169.64 123.388C169.781 123.593 169.963 123.755 170.187 123.873C170.414 123.992 170.683 124.051 170.993 124.051C171.308 124.051 171.574 123.992 171.793 123.873C172.016 123.755 172.196 123.593 172.333 123.388C172.474 123.178 172.577 122.937 172.641 122.663C172.709 122.39 172.743 122.1 172.743 121.795V121.645C172.743 121.362 172.709 121.095 172.641 120.845C172.577 120.594 172.474 120.373 172.333 120.182C172.192 119.986 172.01 119.831 171.786 119.717C171.563 119.603 171.294 119.546 170.98 119.546Z" fill="#F46363"/>
<path d="M195.604 120.722H193.068L193.055 119.471H195.269C195.643 119.471 195.96 119.416 196.22 119.307C196.484 119.193 196.685 119.031 196.821 118.821C196.958 118.607 197.026 118.35 197.026 118.049C197.026 117.716 196.963 117.445 196.835 117.235C196.707 117.026 196.511 116.873 196.247 116.777C195.987 116.682 195.655 116.634 195.249 116.634H193.588V125.22H191.872V115.267H195.249C195.796 115.267 196.283 115.319 196.712 115.424C197.145 115.529 197.512 115.693 197.812 115.916C198.118 116.135 198.348 116.413 198.503 116.75C198.662 117.087 198.742 117.488 198.742 117.953C198.742 118.363 198.644 118.739 198.448 119.081C198.252 119.418 197.963 119.694 197.58 119.908C197.197 120.122 196.721 120.25 196.151 120.291L195.604 120.722ZM195.529 125.22H192.528L193.301 123.859H195.529C195.917 123.859 196.24 123.796 196.5 123.668C196.76 123.536 196.953 123.356 197.081 123.128C197.213 122.896 197.279 122.624 197.279 122.314C197.279 121.991 197.222 121.711 197.108 121.474C196.994 121.232 196.814 121.048 196.568 120.92C196.322 120.788 196.001 120.722 195.604 120.722H193.677L193.69 119.471H196.199L196.589 119.942C197.136 119.961 197.585 120.081 197.936 120.305C198.291 120.528 198.555 120.817 198.728 121.173C198.902 121.528 198.988 121.911 198.988 122.321C198.988 122.955 198.849 123.486 198.571 123.914C198.298 124.342 197.904 124.668 197.389 124.892C196.874 125.11 196.254 125.22 195.529 125.22ZM203.575 124.044C203.844 124.044 204.086 123.992 204.3 123.887C204.519 123.777 204.694 123.627 204.826 123.436C204.963 123.244 205.038 123.023 205.052 122.772H206.603C206.594 123.251 206.453 123.686 206.18 124.078C205.906 124.47 205.544 124.782 205.093 125.015C204.642 125.243 204.143 125.356 203.596 125.356C203.031 125.356 202.538 125.261 202.119 125.069C201.7 124.873 201.351 124.604 201.073 124.263C200.795 123.921 200.586 123.527 200.444 123.08C200.308 122.633 200.239 122.155 200.239 121.645V121.405C200.239 120.895 200.308 120.416 200.444 119.97C200.586 119.519 200.795 119.122 201.073 118.78C201.351 118.438 201.7 118.172 202.119 117.98C202.538 117.785 203.028 117.687 203.589 117.687C204.181 117.687 204.701 117.805 205.147 118.042C205.594 118.274 205.945 118.6 206.2 119.02C206.46 119.434 206.594 119.917 206.603 120.469H205.052C205.038 120.195 204.97 119.949 204.847 119.73C204.728 119.507 204.56 119.329 204.341 119.197C204.127 119.065 203.869 118.999 203.568 118.999C203.236 118.999 202.96 119.067 202.741 119.204C202.522 119.336 202.352 119.519 202.228 119.751C202.105 119.979 202.017 120.236 201.962 120.523C201.912 120.806 201.887 121.1 201.887 121.405V121.645C201.887 121.95 201.912 122.246 201.962 122.533C202.012 122.82 202.099 123.078 202.222 123.306C202.349 123.529 202.522 123.709 202.741 123.846C202.96 123.978 203.238 124.044 203.575 124.044Z" fill="#F46363"/>
<path d="M23.189 155.32V154.368L27.179 150.518C27.5337 150.182 27.795 149.888 27.963 149.636C28.1404 149.374 28.257 149.136 28.313 148.922C28.3784 148.698 28.411 148.483 28.411 148.278C28.411 147.774 28.2337 147.377 27.879 147.088C27.5244 146.798 27.0064 146.654 26.325 146.654C25.8024 146.654 25.331 146.742 24.911 146.92C24.491 147.088 24.127 147.354 23.819 147.718L22.867 146.892C23.2404 146.416 23.7397 146.052 24.365 145.8C24.9997 145.538 25.695 145.408 26.451 145.408C27.1324 145.408 27.725 145.52 28.229 145.744C28.733 145.958 29.1204 146.271 29.391 146.682C29.671 147.092 29.811 147.578 29.811 148.138C29.811 148.455 29.769 148.768 29.685 149.076C29.601 149.384 29.4424 149.71 29.209 150.056C28.9757 150.401 28.6397 150.788 28.201 151.218L24.645 154.648L24.309 154.102H30.231V155.32H23.189ZM33.0624 155.32L37.2204 146.108L37.5844 146.738H31.7604L32.4604 146.052V148.488H31.1164V145.52H38.5084V146.472L34.5464 155.32H33.0624Z" fill="#E8E8E8"/>
<path d="M61.5926 153.007V154.32H54.9207V153.192L58.1609 149.657C58.5164 149.256 58.7967 148.91 59.0017 148.618C59.2068 148.327 59.3504 148.065 59.4324 147.832C59.519 147.595 59.5623 147.365 59.5623 147.142C59.5623 146.827 59.503 146.552 59.3846 146.315C59.2706 146.073 59.102 145.884 58.8787 145.747C58.6554 145.606 58.3842 145.535 58.0652 145.535C57.6961 145.535 57.3862 145.615 57.1355 145.775C56.8849 145.934 56.6958 146.155 56.5681 146.438C56.4405 146.716 56.3767 147.035 56.3767 147.395H54.7293C54.7293 146.816 54.8614 146.287 55.1258 145.809C55.3901 145.326 55.7729 144.943 56.2742 144.66C56.7755 144.373 57.3793 144.23 58.0857 144.23C58.7511 144.23 59.3162 144.341 59.781 144.565C60.2459 144.788 60.5991 145.105 60.8406 145.515C61.0867 145.925 61.2098 146.41 61.2098 146.971C61.2098 147.281 61.1596 147.588 61.0594 147.894C60.9591 148.199 60.8155 148.504 60.6287 148.81C60.4464 149.111 60.2299 149.414 59.9793 149.719C59.7286 150.02 59.4529 150.325 59.1521 150.635L56.9988 153.007H61.5926ZM69.3855 151.606C69.3855 152.226 69.242 152.747 68.9549 153.171C68.6678 153.595 68.2758 153.916 67.7791 154.135C67.2869 154.349 66.7309 154.456 66.1111 154.456C65.4913 154.456 64.9331 154.349 64.4363 154.135C63.9396 153.916 63.5476 153.595 63.2605 153.171C62.9734 152.747 62.8299 152.226 62.8299 151.606C62.8299 151.196 62.9096 150.824 63.0691 150.491C63.2286 150.154 63.4542 149.865 63.7459 149.623C64.0421 149.377 64.3885 149.188 64.7849 149.056C65.186 148.924 65.6235 148.858 66.0974 148.858C66.7264 148.858 67.2892 148.974 67.7859 149.206C68.2827 149.439 68.6723 149.76 68.9549 150.17C69.242 150.58 69.3855 151.059 69.3855 151.606ZM67.7312 151.524C67.7312 151.191 67.6629 150.899 67.5262 150.649C67.3894 150.398 67.198 150.204 66.9519 150.068C66.7058 149.931 66.421 149.863 66.0974 149.863C65.7693 149.863 65.4845 149.931 65.243 150.068C65.0014 150.204 64.8123 150.398 64.6756 150.649C64.5434 150.899 64.4773 151.191 64.4773 151.524C64.4773 151.861 64.5434 152.153 64.6756 152.399C64.8077 152.64 64.9969 152.825 65.243 152.952C65.489 153.08 65.7784 153.144 66.1111 153.144C66.4438 153.144 66.7309 153.08 66.9724 152.952C67.214 152.825 67.4008 152.64 67.533 152.399C67.6652 152.153 67.7312 151.861 67.7312 151.524ZM69.1599 146.985C69.1599 147.481 69.0278 147.923 68.7635 148.311C68.5037 148.698 68.1437 149.003 67.6834 149.227C67.2231 149.446 66.699 149.555 66.1111 149.555C65.5187 149.555 64.99 149.446 64.5252 149.227C64.0649 149.003 63.7026 148.698 63.4383 148.311C63.1785 147.923 63.0486 147.481 63.0486 146.985C63.0486 146.392 63.1785 145.893 63.4383 145.488C63.7026 145.077 64.0649 144.765 64.5252 144.551C64.9855 144.337 65.5118 144.23 66.1043 144.23C66.6967 144.23 67.2231 144.337 67.6834 144.551C68.1437 144.765 68.5037 145.077 68.7635 145.488C69.0278 145.893 69.1599 146.392 69.1599 146.985ZM67.5125 147.039C67.5125 146.743 67.4532 146.483 67.3348 146.26C67.2208 146.032 67.059 145.854 66.8494 145.727C66.6398 145.599 66.3914 145.535 66.1043 145.535C65.8172 145.535 65.5688 145.597 65.3592 145.72C65.1495 145.843 64.9877 146.016 64.8738 146.24C64.7599 146.463 64.7029 146.729 64.7029 147.039C64.7029 147.345 64.7599 147.611 64.8738 147.839C64.9877 148.062 65.1495 148.238 65.3592 148.365C65.5734 148.493 65.824 148.557 66.1111 148.557C66.3982 148.557 66.6466 148.493 66.8562 148.365C67.0659 148.238 67.2277 148.062 67.3416 147.839C67.4555 147.611 67.5125 147.345 67.5125 147.039Z" fill="#E8E8E8"/>
<path d="M89.5763 144.332V154.32H87.9288V146.287L85.4884 147.115V145.754L89.378 144.332H89.5763Z" fill="black"/>
<path d="M116.26 151.844V153.156H109.588V152.028L112.828 148.494C113.184 148.093 113.464 147.747 113.669 147.455C113.874 147.163 114.018 146.901 114.1 146.669C114.186 146.432 114.23 146.202 114.23 145.978C114.23 145.664 114.17 145.388 114.052 145.151C113.938 144.91 113.769 144.72 113.546 144.584C113.323 144.442 113.052 144.372 112.733 144.372C112.363 144.372 112.054 144.452 111.803 144.611C111.552 144.771 111.363 144.992 111.235 145.274C111.108 145.552 111.044 145.871 111.044 146.231H109.397C109.397 145.652 109.529 145.124 109.793 144.645C110.057 144.162 110.44 143.779 110.942 143.497C111.443 143.21 112.047 143.066 112.753 143.066C113.418 143.066 113.984 143.178 114.448 143.401C114.913 143.624 115.266 143.941 115.508 144.351C115.754 144.761 115.877 145.247 115.877 145.807C115.877 146.117 115.827 146.425 115.727 146.73C115.626 147.036 115.483 147.341 115.296 147.646C115.114 147.947 114.897 148.25 114.647 148.555C114.396 148.856 114.12 149.162 113.819 149.471L111.666 151.844H116.26Z" fill="black"/>
<path d="M137.304 148.469H138.288C138.671 148.469 138.988 148.403 139.239 148.271C139.494 148.139 139.683 147.956 139.806 147.724C139.929 147.491 139.991 147.225 139.991 146.924C139.991 146.61 139.934 146.341 139.82 146.117C139.71 145.89 139.542 145.714 139.314 145.591C139.09 145.468 138.806 145.406 138.459 145.406C138.168 145.406 137.903 145.466 137.666 145.584C137.434 145.698 137.249 145.862 137.113 146.076C136.976 146.286 136.908 146.537 136.908 146.828H135.253C135.253 146.3 135.392 145.83 135.67 145.42C135.948 145.01 136.326 144.689 136.805 144.456C137.288 144.219 137.83 144.101 138.432 144.101C139.075 144.101 139.635 144.208 140.114 144.422C140.597 144.632 140.973 144.946 141.242 145.365C141.51 145.785 141.645 146.304 141.645 146.924C141.645 147.207 141.579 147.494 141.447 147.785C141.314 148.077 141.118 148.344 140.859 148.585C140.599 148.822 140.275 149.016 139.888 149.166C139.501 149.312 139.052 149.385 138.541 149.385H137.304V148.469ZM137.304 149.754V148.852H138.541C139.125 148.852 139.621 148.92 140.032 149.057C140.446 149.194 140.784 149.383 141.043 149.624C141.303 149.861 141.492 150.132 141.611 150.438C141.734 150.743 141.795 151.067 141.795 151.408C141.795 151.873 141.711 152.288 141.542 152.653C141.378 153.013 141.144 153.318 140.838 153.569C140.533 153.819 140.175 154.008 139.765 154.136C139.359 154.264 138.917 154.327 138.439 154.327C138.01 154.327 137.6 154.268 137.208 154.15C136.816 154.031 136.465 153.856 136.156 153.623C135.846 153.386 135.6 153.092 135.417 152.741C135.24 152.386 135.151 151.976 135.151 151.511H136.798C136.798 151.807 136.867 152.069 137.003 152.297C137.145 152.52 137.34 152.696 137.591 152.823C137.846 152.951 138.138 153.015 138.466 153.015C138.812 153.015 139.111 152.953 139.362 152.83C139.612 152.707 139.804 152.525 139.936 152.283C140.073 152.042 140.141 151.75 140.141 151.408C140.141 151.021 140.066 150.707 139.915 150.465C139.765 150.224 139.551 150.046 139.273 149.932C138.995 149.813 138.667 149.754 138.288 149.754H137.304Z" fill="black"/>
<path d="M172.312 150.643V151.955H165.134L165.08 150.964L169.373 144.238H170.692L169.263 146.685L166.796 150.643H172.312ZM171.068 144.238V154.191H169.421V144.238H171.068Z" fill="black"/>
<path d="M196.881 149.563L195.568 149.241L196.108 144.238H201.474V145.632H197.475L197.202 148.073C197.357 147.981 197.571 147.892 197.844 147.806C198.118 147.715 198.43 147.669 198.781 147.669C199.25 147.669 199.67 147.747 200.039 147.902C200.412 148.052 200.729 148.273 200.989 148.565C201.249 148.852 201.447 149.203 201.584 149.617C201.72 150.028 201.789 150.49 201.789 151.005C201.789 151.465 201.72 151.896 201.584 152.297C201.452 152.698 201.251 153.051 200.982 153.357C200.713 153.662 200.374 153.901 199.964 154.074C199.558 154.243 199.077 154.327 198.521 154.327C198.107 154.327 197.708 154.268 197.325 154.15C196.947 154.027 196.607 153.847 196.306 153.61C196.006 153.368 195.764 153.072 195.582 152.721C195.399 152.365 195.295 151.958 195.267 151.497H196.881C196.922 151.821 197.01 152.097 197.147 152.324C197.288 152.548 197.475 152.719 197.708 152.837C197.94 152.956 198.209 153.015 198.514 153.015C198.792 153.015 199.032 152.967 199.232 152.871C199.433 152.771 199.599 152.63 199.731 152.448C199.868 152.261 199.968 152.042 200.032 151.791C200.1 151.541 200.134 151.263 200.134 150.957C200.134 150.666 200.096 150.399 200.018 150.157C199.945 149.916 199.834 149.706 199.683 149.529C199.537 149.351 199.353 149.214 199.13 149.118C198.906 149.018 198.649 148.968 198.357 148.968C197.965 148.968 197.664 149.025 197.455 149.139C197.25 149.253 197.058 149.394 196.881 149.563Z" fill="black"/>
<path d="M17.4414 69.3362H19.6289L23.7402 80.303L27.8418 69.3362H30.0293L24.5996 83.5549H22.8613L17.4414 69.3362ZM16.4453 69.3362H18.5254L18.8867 78.8284V83.5549H16.4453V69.3362ZM28.9453 69.3362H31.0352V83.5549H28.584V78.8284L28.9453 69.3362ZM39.668 81.4358V76.3967C39.668 76.0191 39.5996 75.6936 39.4629 75.4202C39.3262 75.1467 39.1178 74.9351 38.8379 74.7854C38.5645 74.6357 38.2194 74.5608 37.8027 74.5608C37.4186 74.5608 37.0866 74.6259 36.8066 74.7561C36.5267 74.8863 36.3086 75.0621 36.1523 75.2834C35.9961 75.5048 35.918 75.7555 35.918 76.0354H33.5742C33.5742 75.6187 33.6751 75.2151 33.877 74.8245C34.0788 74.4338 34.3717 74.0855 34.7559 73.7795C35.14 73.4736 35.599 73.2327 36.1328 73.0569C36.6667 72.8811 37.2656 72.7932 37.9297 72.7932C38.724 72.7932 39.4271 72.9267 40.0391 73.1936C40.6576 73.4605 41.1426 73.8642 41.4941 74.4045C41.8522 74.9384 42.0312 75.609 42.0312 76.4163V81.1135C42.0312 81.5953 42.0638 82.0282 42.1289 82.4124C42.2005 82.79 42.3014 83.1187 42.4316 83.3987V83.5549H40.0195C39.9089 83.301 39.821 82.9788 39.7559 82.5881C39.6973 82.191 39.668 81.8069 39.668 81.4358ZM40.0098 77.1292L40.0293 78.5842H38.3398C37.9036 78.5842 37.5195 78.6265 37.1875 78.7112C36.8555 78.7893 36.5788 78.9065 36.3574 79.0627C36.1361 79.219 35.9701 79.4078 35.8594 79.6292C35.7487 79.8505 35.6934 80.1012 35.6934 80.3811C35.6934 80.6611 35.7585 80.9182 35.8887 81.1526C36.0189 81.3805 36.2077 81.5595 36.4551 81.6897C36.709 81.8199 37.015 81.885 37.373 81.885C37.8548 81.885 38.2747 81.7874 38.6328 81.592C38.9974 81.3902 39.2839 81.1461 39.4922 80.8596C39.7005 80.5667 39.8112 80.29 39.8242 80.0295L40.5859 81.0745C40.5078 81.3414 40.3743 81.6278 40.1855 81.9338C39.9967 82.2398 39.7493 82.5328 39.4434 82.8127C39.1439 83.0862 38.7826 83.3108 38.3594 83.4866C37.9427 83.6624 37.4609 83.7502 36.9141 83.7502C36.224 83.7502 35.6087 83.6135 35.0684 83.3401C34.528 83.0601 34.1048 82.6858 33.7988 82.217C33.4928 81.7418 33.3398 81.2047 33.3398 80.6057C33.3398 80.0458 33.444 79.551 33.6523 79.1213C33.8672 78.6851 34.1797 78.3206 34.5898 78.0276C35.0065 77.7346 35.5143 77.5133 36.1133 77.3635C36.7122 77.2073 37.3958 77.1292 38.1641 77.1292H40.0098ZM46.8555 75.0198V87.6174H44.502V72.9885H46.6699L46.8555 75.0198ZM53.7402 78.1741V78.3792C53.7402 79.1474 53.6491 79.8603 53.4668 80.5178C53.291 81.1689 53.0273 81.7385 52.6758 82.2268C52.3307 82.7086 51.9043 83.0829 51.3965 83.3499C50.8887 83.6168 50.3027 83.7502 49.6387 83.7502C48.9811 83.7502 48.4049 83.6298 47.9102 83.3889C47.4219 83.1415 47.0085 82.7932 46.6699 82.344C46.3314 81.8948 46.0579 81.3674 45.8496 80.762C45.6478 80.15 45.5046 79.4794 45.4199 78.7502V77.9592C45.5046 77.1845 45.6478 76.4814 45.8496 75.8499C46.0579 75.2183 46.3314 74.6747 46.6699 74.219C47.0085 73.7633 47.4219 73.4117 47.9102 73.1643C48.3984 72.9169 48.9681 72.7932 49.6191 72.7932C50.2832 72.7932 50.8724 72.9234 51.3867 73.1838C51.901 73.4377 52.334 73.8023 52.6855 74.2776C53.0371 74.7463 53.3008 75.3127 53.4766 75.9768C53.6523 76.6344 53.7402 77.3668 53.7402 78.1741ZM51.3867 78.3792V78.1741C51.3867 77.6858 51.3411 77.2333 51.25 76.8167C51.1589 76.3935 51.0156 76.0224 50.8203 75.7034C50.625 75.3844 50.3743 75.137 50.0684 74.9612C49.7689 74.7789 49.4076 74.6877 48.9844 74.6877C48.5677 74.6877 48.2096 74.7594 47.9102 74.9026C47.6107 75.0393 47.36 75.2314 47.1582 75.4788C46.9564 75.7262 46.8001 76.0159 46.6895 76.3479C46.5788 76.6734 46.5007 77.0282 46.4551 77.4124V79.3069C46.5332 79.7756 46.6667 80.2053 46.8555 80.5959C47.0443 80.9866 47.3112 81.2991 47.6562 81.5334C48.0078 81.7613 48.457 81.8752 49.0039 81.8752C49.4271 81.8752 49.7884 81.7841 50.0879 81.6018C50.3874 81.4195 50.6315 81.1689 50.8203 80.8499C51.0156 80.5243 51.1589 80.15 51.25 79.7268C51.3411 79.3036 51.3867 78.8544 51.3867 78.3792ZM60 72.9885V83.5549H57.6367V72.9885H60ZM63.4668 72.9885V74.844H54.2285V72.9885H63.4668ZM79.4141 81.6799V83.5549H69.8828V81.9436L74.5117 76.8948C75.0195 76.3219 75.4199 75.8271 75.7129 75.4104C76.0059 74.9937 76.2109 74.6194 76.3281 74.2874C76.4518 73.9488 76.5137 73.62 76.5137 73.301C76.5137 72.8518 76.429 72.4579 76.2598 72.1194C76.097 71.7743 75.8561 71.5042 75.5371 71.3088C75.2181 71.107 74.8307 71.0061 74.375 71.0061C73.8477 71.0061 73.4049 71.12 73.0469 71.3479C72.6888 71.5758 72.4186 71.8915 72.2363 72.2952C72.054 72.6923 71.9629 73.148 71.9629 73.6624H69.6094C69.6094 72.8355 69.7982 72.0803 70.1758 71.3967C70.5534 70.7066 71.1003 70.1597 71.8164 69.7561C72.5326 69.3459 73.3952 69.1409 74.4043 69.1409C75.3548 69.1409 76.1621 69.3004 76.8262 69.6194C77.4902 69.9384 77.9948 70.3909 78.3398 70.9768C78.6914 71.5627 78.8672 72.2561 78.8672 73.0569C78.8672 73.4996 78.7956 73.939 78.6523 74.3752C78.5091 74.8114 78.304 75.2476 78.0371 75.6838C77.7767 76.1135 77.4674 76.5465 77.1094 76.9827C76.7513 77.4124 76.3574 77.8486 75.9277 78.2913L72.8516 81.6799H79.4141ZM90.5176 75.2542V77.5784C90.5176 78.6917 90.4069 79.6422 90.1855 80.4299C89.9707 81.2112 89.6582 81.8459 89.248 82.3342C88.8379 82.8225 88.3464 83.1806 87.7734 83.4084C87.207 83.6363 86.5723 83.7502 85.8691 83.7502C85.3092 83.7502 84.7884 83.6786 84.3066 83.5354C83.8314 83.3922 83.4017 83.1676 83.0176 82.8616C82.6335 82.5556 82.3047 82.1617 82.0312 81.6799C81.7643 81.1917 81.556 80.609 81.4062 79.9319C81.263 79.2548 81.1914 78.4703 81.1914 77.5784V75.2542C81.1914 74.1344 81.3021 73.1903 81.5234 72.4221C81.7448 71.6474 82.0605 71.0191 82.4707 70.5374C82.8809 70.0491 83.3691 69.6943 83.9355 69.4729C84.5085 69.2515 85.1465 69.1409 85.8496 69.1409C86.416 69.1409 86.9368 69.2125 87.4121 69.3557C87.8939 69.4924 88.3236 69.7105 88.7012 70.01C89.0853 70.3095 89.4108 70.7001 89.6777 71.1819C89.9512 71.6571 90.1595 72.2333 90.3027 72.9104C90.446 73.581 90.5176 74.3622 90.5176 75.2542ZM88.1641 77.9104V74.9026C88.1641 74.3362 88.1315 73.8381 88.0664 73.4084C88.0013 72.9722 87.9036 72.6044 87.7734 72.3049C87.6497 71.9989 87.4935 71.7515 87.3047 71.5627C87.1159 71.3674 86.901 71.2275 86.6602 71.1428C86.4193 71.0517 86.1491 71.0061 85.8496 71.0061C85.485 71.0061 85.1595 71.0777 84.873 71.2209C84.5866 71.3577 84.3457 71.579 84.1504 71.885C83.9551 72.191 83.8053 72.5946 83.7012 73.0959C83.6035 73.5907 83.5547 74.193 83.5547 74.9026V77.9104C83.5547 78.4833 83.5872 78.9879 83.6523 79.4241C83.7174 79.8603 83.8151 80.2346 83.9453 80.5471C84.0755 80.8531 84.2318 81.107 84.4141 81.3088C84.6029 81.5042 84.8177 81.6474 85.0586 81.7385C85.306 81.8297 85.5762 81.8752 85.8691 81.8752C86.2402 81.8752 86.569 81.8036 86.8555 81.6604C87.1419 81.5172 87.3828 81.2893 87.5781 80.9768C87.7734 80.6578 87.9199 80.2444 88.0176 79.7366C88.1152 79.2288 88.1641 78.62 88.1641 77.9104ZM102.148 81.6799V83.5549H92.6172V81.9436L97.2461 76.8948C97.7539 76.3219 98.1543 75.8271 98.4473 75.4104C98.7402 74.9937 98.9453 74.6194 99.0625 74.2874C99.1862 73.9488 99.248 73.62 99.248 73.301C99.248 72.8518 99.1634 72.4579 98.9941 72.1194C98.8314 71.7743 98.5905 71.5042 98.2715 71.3088C97.9525 71.107 97.5651 71.0061 97.1094 71.0061C96.582 71.0061 96.1393 71.12 95.7812 71.3479C95.4232 71.5758 95.153 71.8915 94.9707 72.2952C94.7884 72.6923 94.6973 73.148 94.6973 73.6624H92.3438C92.3438 72.8355 92.5326 72.0803 92.9102 71.3967C93.2878 70.7066 93.8346 70.1597 94.5508 69.7561C95.2669 69.3459 96.1296 69.1409 97.1387 69.1409C98.0892 69.1409 98.8965 69.3004 99.5605 69.6194C100.225 69.9384 100.729 70.3909 101.074 70.9768C101.426 71.5627 101.602 72.2561 101.602 73.0569C101.602 73.4996 101.53 73.939 101.387 74.3752C101.243 74.8114 101.038 75.2476 100.771 75.6838C100.511 76.1135 100.202 76.5465 99.8438 76.9827C99.4857 77.4124 99.0918 77.8486 98.6621 78.2913L95.5859 81.6799H102.148ZM106.748 75.3811H108.154C108.701 75.3811 109.154 75.2867 109.512 75.0979C109.876 74.9091 110.146 74.6487 110.322 74.3167C110.498 73.9846 110.586 73.6038 110.586 73.1741C110.586 72.7249 110.505 72.3407 110.342 72.0217C110.186 71.6962 109.945 71.4456 109.619 71.2698C109.3 71.094 108.893 71.0061 108.398 71.0061C107.982 71.0061 107.604 71.0907 107.266 71.26C106.934 71.4228 106.67 71.6571 106.475 71.9631C106.279 72.2626 106.182 72.6207 106.182 73.0374H103.818C103.818 72.2821 104.017 71.6116 104.414 71.0256C104.811 70.4397 105.352 69.9807 106.035 69.6487C106.725 69.3101 107.5 69.1409 108.359 69.1409C109.277 69.1409 110.078 69.2939 110.762 69.5999C111.452 69.8993 111.989 70.3486 112.373 70.9475C112.757 71.5465 112.949 72.2887 112.949 73.1741C112.949 73.5777 112.855 73.9879 112.666 74.4045C112.477 74.8212 112.197 75.2021 111.826 75.5471C111.455 75.8857 110.993 76.1624 110.439 76.3772C109.886 76.5855 109.245 76.6897 108.516 76.6897H106.748V75.3811ZM106.748 77.217V75.928H108.516C109.349 75.928 110.059 76.0256 110.645 76.2209C111.237 76.4163 111.719 76.6864 112.09 77.0315C112.461 77.37 112.731 77.7574 112.9 78.1936C113.076 78.6298 113.164 79.092 113.164 79.5803C113.164 80.2444 113.044 80.8368 112.803 81.3577C112.568 81.872 112.233 82.3082 111.797 82.6663C111.361 83.0243 110.85 83.2945 110.264 83.4768C109.684 83.6591 109.053 83.7502 108.369 83.7502C107.757 83.7502 107.171 83.6656 106.611 83.4963C106.051 83.3271 105.55 83.0764 105.107 82.7444C104.665 82.4058 104.313 81.9859 104.053 81.4846C103.799 80.9768 103.672 80.3909 103.672 79.7268H106.025C106.025 80.15 106.123 80.5243 106.318 80.8499C106.52 81.1689 106.8 81.4195 107.158 81.6018C107.523 81.7841 107.939 81.8752 108.408 81.8752C108.903 81.8752 109.329 81.7874 109.688 81.6116C110.046 81.4358 110.319 81.1754 110.508 80.8303C110.703 80.4853 110.801 80.0686 110.801 79.5803C110.801 79.0269 110.693 78.5777 110.479 78.2327C110.264 77.8876 109.958 77.6337 109.561 77.4709C109.163 77.3017 108.695 77.217 108.154 77.217H106.748Z" fill="black"/>
</svg>
