<svg width="30" height="30" viewBox="0 0 30 30" fill="none" xmlns="http://www.w3.org/2000/svg">
<path d="M20.1749 2.67041C20.1149 3.0454 20.0849 3.4204 20.0849 3.79539C20.0849 7.17034 22.8149 9.8988 26.1749 9.8988C26.5499 9.8988 26.9099 9.8553 27.2849 9.7953V21.8986C27.2849 26.985 24.2849 30 19.1849 30H8.10146C2.99999 30 0 26.985 0 21.8986V10.8003C0 5.70037 2.99999 2.67041 8.10146 2.67041H20.1749ZM20.4764 11.7903C20.0699 11.7453 19.6664 11.9253 19.4249 12.2553L15.7964 16.9502L11.6399 13.6802C11.3849 13.4852 11.0849 13.4088 10.7849 13.4402C10.4864 13.4852 10.2164 13.6487 10.035 13.8887L5.59647 19.6652L5.50497 19.8002C5.24997 20.2786 5.36997 20.8936 5.81997 21.2251C6.02997 21.3601 6.25497 21.4501 6.50997 21.4501C6.85647 21.4651 7.18496 21.2836 7.39496 21.0001L11.1599 16.1537L15.4349 19.3652L15.5699 19.4537C16.0499 19.7087 16.6499 19.5902 16.9949 19.1387L21.3299 13.5452L21.2699 13.5752C21.5099 13.2453 21.5549 12.8253 21.3899 12.4503C21.2264 12.0753 20.8649 11.8203 20.4764 11.7903ZM26.385 0C28.38 0 30 1.61998 30 3.61495C30 5.60992 28.38 7.22989 26.385 7.22989C24.39 7.22989 22.77 5.60992 22.77 3.61495C22.77 1.61998 24.39 0 26.385 0Z" fill="#5CC3FD"/>
</svg>
