<svg width="122" height="122" viewBox="0 0 122 122" fill="none" xmlns="http://www.w3.org/2000/svg">
<path d="M61.0335 0C79.1976 0 94.1309 12.846 94.8889 29.1234H94.7118C94.733 29.5965 94.632 30.0677 94.4166 30.5H95.4748C103.723 30.5 112.361 35.6454 115.824 48.0668L116.201 49.5324L121.412 87.3199C125.162 111.421 110.511 121.556 90.5254 121.986L89.1852 122H32.9978C12.6865 122 -2.96498 115.339 0.476348 88.9597L0.71102 87.3199L5.98233 49.5324C8.58162 36.1558 17.3078 30.8797 25.7157 30.5199L26.6483 30.5H27.1781C27.0888 30.0446 27.0888 29.5788 27.1781 29.1234C27.9361 12.846 42.8694 0 61.0335 0ZM41.3241 50.8087C38.0158 50.8087 35.334 53.293 35.334 56.3575C35.334 59.422 38.0158 61.9063 41.3241 61.9063C44.6323 61.9063 47.3142 59.422 47.3142 56.3575L47.2675 55.6615C46.8979 52.9255 44.3779 50.8087 41.3241 50.8087ZM80.5594 50.8087C77.2512 50.8087 74.5693 53.293 74.5693 56.3575C74.5693 59.422 77.2512 61.9063 80.5594 61.9063C83.8677 61.9063 86.5496 59.422 86.5496 56.3575C86.5496 53.293 83.8677 50.8087 80.5594 50.8087ZM60.7679 7.94455C47.7267 7.94455 37.1547 17.4266 37.1547 29.1234C37.244 29.5788 37.244 30.0446 37.1547 30.5H84.6762C84.4876 30.0605 84.3876 29.5943 84.381 29.1234C84.381 17.4266 73.8091 7.94455 60.7679 7.94455Z" fill="#EEEEEE"/>
</svg>
