<svg width="24" height="31" viewBox="0 0 24 31" fill="none" xmlns="http://www.w3.org/2000/svg">
<path d="M19.8523 11.1932L18.5455 14.0341H0.0227273L1.04545 11.1932H19.8523ZM17.4091 16.875L16.1023 19.7159H0.0227273L1.04545 16.875H17.4091ZM23.2045 3.52273L21.8409 6.47727C21.2348 5.92803 20.5956 5.45454 19.9233 5.05682C19.2509 4.65909 18.5455 4.35133 17.8068 4.13352C17.0682 3.91572 16.2917 3.80682 15.4773 3.80682C13.8674 3.80682 12.4186 4.25189 11.1307 5.14205C9.8428 6.0322 8.82481 7.34375 8.0767 9.0767C7.3286 10.8097 6.95455 12.9356 6.95455 15.4545C6.95455 17.9735 7.3286 20.0994 8.0767 21.8324C8.82481 23.5653 9.8428 24.8769 11.1307 25.767C12.4186 26.6572 13.8674 27.1023 15.4773 27.1023C16.3106 27.1023 17.0966 26.9934 17.8352 26.7756C18.5833 26.5578 19.2794 26.2595 19.9233 25.8807C20.5767 25.5019 21.178 25.0758 21.7273 24.6023L23.1477 27.5568C22.1534 28.4943 20.9886 29.2045 19.6534 29.6875C18.3182 30.161 16.9261 30.3977 15.4773 30.3977C13.1477 30.3977 11.0833 29.7917 9.28409 28.5795C7.49432 27.3674 6.08807 25.6439 5.06534 23.4091C4.05208 21.1742 3.54545 18.5227 3.54545 15.4545C3.54545 12.3864 4.05208 9.73485 5.06534 7.5C6.08807 5.26515 7.49432 3.54167 9.28409 2.32955C11.0833 1.11742 13.1477 0.511363 15.4773 0.511363C16.983 0.511363 18.3892 0.771779 19.696 1.29261C21.0123 1.81345 22.1818 2.55682 23.2045 3.52273Z" fill="#00AB55"/>
</svg>
