<svg width="31" height="30" viewBox="0 0 31 30" fill="none" xmlns="http://www.w3.org/2000/svg">
<path d="M0.222168 15L0.227939 14.5804C0.450603 6.49413 7.08824 0 15.2347 0C23.5066 0 30.2472 6.72 30.2472 15C30.2472 23.265 23.5066 30 15.2347 30C6.94778 30 0.222168 23.265 0.222168 15ZM9.22968 12.03C8.77931 12.48 8.77931 13.185 9.22968 13.62L14.439 18.855C14.6492 19.065 14.9344 19.185 15.2347 19.185C15.5349 19.185 15.8202 19.065 16.0304 18.855L21.2397 13.62C21.4649 13.41 21.57 13.125 21.57 12.84C21.57 12.54 21.4649 12.255 21.2397 12.03C20.7893 11.595 20.0837 11.595 19.6484 12.045L15.2347 16.47L10.821 12.045C10.3856 11.595 9.66505 11.595 9.22968 12.03Z" fill="#5FC56E"/>
</svg>
