<svg width="30" height="30" viewBox="0 0 30 30" fill="none" xmlns="http://www.w3.org/2000/svg">
<path d="M5.37543 24.4614C5.39941 24.4614 5.42125 24.4679 5.43911 24.4783L5.39989 24.5178L5.35138 24.5779L2.25818 28.4099L2.22284 28.4537C2.03262 28.5397 1.798 28.5059 1.64267 28.3522C1.45994 28.1714 1.45274 27.889 1.62106 27.7002L5.21847 24.5613L5.2185 24.5613L5.22719 24.5536L5.31308 24.4775C5.33079 24.4675 5.35224 24.4614 5.37543 24.4614ZM28.5 12.8665C28.5 15.8758 27.2918 18.7652 25.136 20.8981C22.9796 23.0315 20.0515 24.2329 16.9951 24.2329C10.626 24.2329 5.49022 19.1289 5.49022 12.8665C5.49022 6.60403 10.626 1.5 16.9951 1.5C23.3643 1.5 28.5 6.60403 28.5 12.8665Z" fill="white" stroke="#969696" stroke-width="3"/>
</svg>
